<svg width="75" height="77" fill="none" xmlns="http://www.w3.org/2000/svg"><mask id="a" maskUnits="userSpaceOnUse" x="-.139" y=".559" width="75" height="76" fill="#000"><path fill="#fff" d="M-.139.559h75v76h-75z"/><path d="M73.787 38.607c0 20.5-16.357 37.068-36.656 36.986C17.025 75.51.75 58.977.86 38.353.972 17.964 17.24 1.424 37.566 1.56c20.037.137 36.166 16.568 36.22 37.047zM39.593 70.886c7.953-.706 14.766-3.81 20.347-9.524 5.513-5.64 8.508-12.49 9.192-20.494h-8.97v-4.625h8.936C67.894 19.333 54.2 7.144 39.558 6.35v9.03h-4.55V6.274c-8.826.85-16.15 4.522-21.898 11.278-4.544 5.351-7.013 11.607-7.6 18.719h8.949v4.625H5.558c.961 16.567 14.828 29.263 29.477 29.894V61.8h4.558v9.086z"/></mask><path d="M73.787 38.607c0 20.5-16.357 37.068-36.656 36.986C17.025 75.51.75 58.977.86 38.353.972 17.964 17.24 1.424 37.566 1.56c20.037.137 36.166 16.568 36.22 37.047zM39.593 70.886c7.953-.706 14.766-3.81 20.347-9.524 5.513-5.64 8.508-12.49 9.192-20.494h-8.97v-4.625h8.936C67.894 19.333 54.2 7.144 39.558 6.35v9.03h-4.55V6.274c-8.826.85-16.15 4.522-21.898 11.278-4.544 5.351-7.013 11.607-7.6 18.719h8.949v4.625H5.558c.961 16.567 14.828 29.263 29.477 29.894V61.8h4.558v9.086z" fill="#fff"/><path d="M73.787 38.607h.8v-.002l-.8.002zM37.13 75.593l-.004.8.004-.8zM.86 38.353l-.8-.004.8.005zM37.566 1.56l.006-.8-.006.8zm2.027 69.326h-.8v.874l.87-.077-.07-.797zm20.347-9.524l-.572-.56.572.56zm9.192-20.494l.797.069.075-.869h-.872v.8zm-8.97 0h-.8v.8h.8v-.8zm0-4.625v-.8h-.8v.8h.8zm8.936 0v.8h.859l-.061-.856-.798.056zM39.558 6.35l.044-.8-.844-.045v.845h.8zm0 9.03v.8h.8v-.8h-.8zm-4.55 0h-.8v.8h.8v-.8zm0-9.106h.8v-.88l-.877.084.076.796zM13.11 17.552l-.61-.518.61.518zm-7.6 18.719l-.798-.066-.072.866h.87v-.8zm8.949 0h.8v-.8h-.8v.8zm0 4.625v.8h.8v-.8h-.8zm-8.901 0v-.8H4.71l.049.846.799-.046zM35.035 70.79l-.034.8.834.035v-.835h-.8zm0-8.99V61h-.8v.8h.8zm4.558 0h.8V61h-.8v.8zm33.394-23.193c0 20.068-16.008 36.266-35.853 36.186l-.007 1.6c20.753.084 37.46-16.853 37.46-37.786h-1.6zM37.134 74.793C17.48 74.713 1.554 58.55 1.66 38.358l-1.6-.008c-.11 21.055 16.51 37.959 37.068 38.043l.007-1.6zM1.66 38.358C1.769 18.395 17.69 2.226 37.56 2.36l.01-1.6C16.789.62.175 17.531.062 38.35l1.6.008zM37.56 2.36c19.585.134 35.372 16.196 35.426 36.25l1.6-.005C74.53 17.7 58.06.9 37.572.76l-.011 1.6zm2.102 69.323c8.136-.722 15.129-3.905 20.85-9.762l-1.145-1.118c-5.442 5.572-12.074 8.596-19.846 9.286l.142 1.594zm20.85-9.762c5.65-5.78 8.717-12.809 9.416-20.984l-1.594-.137c-.67 7.83-3.592 14.505-8.967 20.003l1.145 1.118zm8.62-21.853h-8.971v1.6h8.971v-1.6zm-8.171.8v-4.624h-1.6v4.626h1.6zm-.8-3.825h8.937v-1.6h-8.936v1.6zm9.734-.856C68.663 18.867 54.639 6.367 39.602 5.55l-.087 1.597C53.76 7.922 67.125 19.8 68.3 36.3l1.596-.113zM38.758 6.35v9.03h1.6V6.349h-1.6zm.8 8.23h-4.551v1.6h4.551v-1.6zm-3.75.8V6.274h-1.6v9.106h1.6zm-.877-9.902c-9.023.868-16.542 4.635-22.43 11.556l1.219 1.036c5.606-6.59 12.736-10.169 21.364-11l-.153-1.592zM12.5 17.034c-4.66 5.487-7.188 11.904-7.789 19.171l1.595.132C6.882 29.38 9.29 23.285 13.72 18.07l-1.22-1.036zM5.508 37.071h8.952v-1.6H5.509v1.6zm8.15-.8v4.625h1.6V36.27h-1.6zm.8 3.825h-8.9v1.6h8.901v-1.6zm-9.7.846c.985 16.98 15.184 30 30.242 30.647l.068-1.598C20.83 69.378 7.294 57.005 6.356 40.849l-1.597.093zM35.835 70.79v-8.989h-1.6v8.989h1.6zm-.8-8.19h4.558V61h-4.559v1.6zm3.758-.8v9.086h1.6V61.8h-1.6z" fill="#fff" mask="url(#a)"/><path d="M46.61 52.137l.426.39.406-.412 1.08-1.097c.712-.72 1.425-1.444 2.165-2.2l.462-.472-.515-.415a2.642 2.642 0 00-.12-.09l-.044-.031a6.947 6.947 0 01-.06-.044 1.353 1.353 0 01-.15-.12 4195.255 4195.255 0 00-9.797-9.974h-.001a.966.966 0 01-.227-.326 1.072 1.072 0 01-.063-.403c.01-3.444.01-6.89.008-10.33l-.001-3.436v-.157 0-.082 0-.053 0-.238 0-.831h-5.672l-.043.553c-.004.056-.01.106-.016.164l-.008.067a2.725 2.725 0 00-.019.295v.009c0 5.136 0 10.271-.007 15.407v0c0 1.06.4 1.913 1.12 2.642l.002.001c2.962 2.986 5.91 5.982 8.861 8.98l1.788 1.817.013.013.013.012.398.36zm-6.575-14.044c-.338-.342-.463-.678-.463-1.15l.463 1.15z" fill="#fff" stroke="#fff" stroke-width="1.2" stroke-miterlimit="10"/><path d="M47.014 51.694l-.02-.018a8.36 8.36 0 01-.381-.366l-1.788-1.816c-2.95-2.998-5.9-5.995-8.863-8.982-.623-.63-.948-1.33-.948-2.22.004-2.57.004-5.139.004-7.708 0-2.57 0-5.139.003-7.708 0-.13.016-.26.033-.409l.009-.07h4.516v4.201c.002 3.443.003 6.886-.007 10.324 0 .473.131.815.463 1.15 2.19 2.215 4.37 4.44 6.549 6.662 1.083 1.105 2.167 2.211 3.252 3.315.122.121.266.22.379.299l.043.03a532.193 532.193 0 01-3.244 3.316z" fill="#fff"/><path d="M47.014 51.694l-.02-.018a8.36 8.36 0 01-.381-.366l-1.788-1.816c-2.95-2.998-5.9-5.995-8.863-8.982-.623-.63-.948-1.33-.948-2.22.004-2.57.004-5.139.004-7.708 0-2.57 0-5.139.003-7.708 0-.13.016-.26.033-.409l.009-.07h4.516v4.201c.002 3.443.003 6.886-.007 10.324 0 .473.131.815.463 1.15 2.19 2.215 4.37 4.44 6.549 6.662 1.083 1.105 2.167 2.211 3.252 3.315.122.121.266.22.379.299l.043.03a532.193 532.193 0 01-3.244 3.316z" stroke="#fff"/></svg>