<svg width="81" height="81" fill="none" xmlns="http://www.w3.org/2000/svg"><mask id="a" maskUnits="userSpaceOnUse" x=".317" y="-.194" width="80" height="81" fill="#000"><path fill="#fff" d="M.317-.194h80v81h-80z"/><path fill-rule="evenodd" clip-rule="evenodd" d="M12.826 1.106c-.608.378-.963 1.053-.963 1.834 0 .452.19.899.777 1.836 1.396 2.228 1.922 3.766 2.083 6.092l.092 1.317-.52-.227a155.43 155.43 0 01-2.068-.946c-1.63-.757-2.198-.853-3.013-.506-.992.422-1.754 1.794-1.565 2.82.052.286.612 1.262 1.242 2.168 1.265 1.818 2.05 3.305 2.422 4.592.347 1.2.32 1.32-.405 1.805-1.136.76-3.514 3.343-4.586 4.982C3.108 31.788 1.596 37.93 1.823 45.15c.119 3.752.605 7.035 1.473 9.94l.296.993-.509 1.03c-1.086 2.2-1.766 5.292-1.766 8.033 0 3.495 1.214 8.01 2.319 8.63.545.305 1.2.073 1.481-.525.192-.408.17-.55-.266-1.63-1.827-4.534-1.575-10.344.612-14.14.827-1.435 2.609-3.158 3.954-3.822 1.824-.901 3.045-1.014 5.848-.541l1.031.173.01.715c.015 1.21.238 2.23.534 2.452.399.296 1.045.256 1.465-.091.337-.28.358-.39.32-1.692l-.042-1.393 1.599-.254c1.968-.312 2.644-.314 3.897-.013 2.898.695 5.346 3.22 6.556 6.762.63 1.847.863 3.354.853 5.525-.02 4.631-1.743 8.564-4.664 10.652-1.6 1.144-2.72 1.485-4.871 1.485-1.332 0-1.96-.071-2.591-.295-1.124-.398-2.537-.38-4.212.056-2.233.58-4.173.306-6.398-.903-.816-.443-.928-.466-1.373-.281-.58.24-.838.841-.627 1.462.112.33.46.59 1.54 1.142.767.392 1.832.813 2.368.933 1.502.34 3.78.277 5.408-.149l1.377-.36 1.604.404c3.602.905 6.85.244 9.598-1.955.908-.726 1.026-.78 1.317-.589 2.48 1.627 4.44 2.45 6.674 2.804 1.601.254 4.655.1 6.181-.311 1.561-.42 3.995-1.63 5.283-2.627.759-.586 1.225-.821 1.911-.965 1.477-.308 4.303-1.219 6.106-1.967 4.825-2.004 8.952-4.87 12.765-8.869 5.785-6.067 9.23-13.34 10.418-21.997.26-1.893.262-7.714.003-9.57-.69-4.959-1.863-8.75-4.015-12.982-1.648-3.238-3.746-6.247-6.113-8.765-1.684-1.792.935-4.087-22.152 19.409L26.92 51.523l-1.376-.486c-1.25-.442-1.538-.485-3.134-.47-.967.009-2.332.113-3.033.232-1.15.194-1.282.191-1.349-.032-.802-2.71-2.571-5.313-4.554-6.701-.825-.578-1.348-.599-1.865-.073-.5.51-.408 1.244.213 1.699 1.05.767 2.596 2.542 3.14 3.604.313.612.57 1.182.57 1.268 0 .1-.206.107-.574.02-.878-.208-2.898-.164-4.09.09-1.329.282-3.55 1.39-4.658 2.324-.605.51-.866.65-.946.504-.177-.322-.704-3.161-.9-4.85-.255-2.192-.216-6.633.077-8.87.789-6.01 2.873-10.884 6.158-14.404 2.128-2.28 4.683-3.818 7.652-4.608 1.151-.305 2.007-.412 3.818-.477 2.658-.094 3.986.07 6.074.75 4.64 1.509 8.437 4.908 10.568 9.46.466.995.9 1.914.964 2.043.064.128.29.333.5.455.511.296 1.248 0 1.492-.599.145-.357.113-.593-.196-1.428-1.222-3.305-3.55-6.568-6.205-8.696-.68-.546-1.238-1.072-1.238-1.17 0-.416.533-1.948 1.029-2.956.294-.6.984-1.717 1.532-2.483.549-.767 1.097-1.637 1.219-1.934.624-1.52-.742-3.448-2.437-3.439-.283.002-1.367.406-2.49.93l-1.986.925-.05-.488c-.07-.69.22-2.734.516-3.64.328-.999.944-2.236 1.729-3.472.943-1.486.852-2.624-.271-3.395-.837-.574-1.477-.476-3.585.55-1.023.499-2.267 1.171-2.765 1.496-1.162.756-2.547 2.103-3.155 3.067-.262.416-.497.757-.522.757-.024 0-.259-.34-.521-.757-.605-.96-1.991-2.31-3.14-3.057-.489-.319-1.723-.991-2.741-1.494-2.048-1.012-2.732-1.129-3.565-.612zM16.45 4.37c2.004 1.067 3.798 2.767 4.478 4.245.43.935.72 2.18.72 3.095 0 .741.533 1.386 1.146 1.386.574 0 1.147-.647 1.147-1.295 0-2.429 1.304-4.756 3.592-6.41.934-.674 3.44-2.024 3.44-1.852 0 .052-.129.28-.286.507-1.395 2.011-2.15 5.13-2.157 8.912-.003 1.542.294 2.16 1.04 2.16.226 0 1.613-.56 3.085-1.245 1.47-.684 2.76-1.244 2.865-1.244.342 0 .209.281-.786 1.67-1.164 1.624-1.924 3.02-2.395 4.398-.19.557-.395 1.07-.456 1.142-.061.072-.583-.08-1.16-.335-2.489-1.103-4.896-1.583-7.95-1.584-2.846 0-5.202.487-7.856 1.626l-1.205.517-.331-1.033c-.462-1.437-1.22-2.872-2.453-4.64-.627-.897-.998-1.566-.916-1.65.131-.133 2.619.903 4.638 1.932 1.124.574 1.675.578 2.114.019.323-.412.332-.517.24-2.763-.145-3.518-.653-5.551-1.876-7.51-.282-.452-.512-.851-.512-.888 0-.076.81.295 1.834.84zm52.063 10.01c4.302 4.835 7.354 11.587 8.423 18.634.332 2.184.376 7.75.078 9.88-1.082 7.756-4.376 14.73-9.572 20.27-2.96 3.156-6.068 5.49-9.87 7.411-2.044 1.034-5.09 2.275-5.58 2.275-.14 0 .009-.433.45-1.314.362-.722.786-1.745.941-2.273.21-.711.374-.995.635-1.096.193-.075 1.095-.516 2.004-.98 3.224-1.644 5.539-3.357 8.21-6.076 3.834-3.903 6.245-7.938 7.907-13.237.663-2.114.93-3.407.805-3.913-.126-.511-.901-.852-1.476-.648-.503.178-.529.234-1.058 2.305-1.865 7.294-6.163 13.48-12.24 17.614-1.202.819-3.777 2.307-3.984 2.303-.03 0-.068-.718-.086-1.595-.114-5.5-3.518-10.83-8.519-13.339-2.41-1.209-3.638-1.482-6.659-1.482-2.163 0-2.707.051-3.822.361-1.528.425-3.538 1.353-4.642 2.143-.431.31 6.813-7.179 16.098-16.64 9.286-9.46 16.937-17.167 17.002-17.126.195.122 1.853 2.242 2.606 3.33 1.536 2.222 3.116 5.593 3.932 8.39.602 2.06 1.062 4.932 1.184 7.382.091 1.837.135 2.067.45 2.39.464.47 1.049.452 1.541-.05l.398-.404-.1-2.015c-.307-6.17-2.065-11.74-5.224-16.55-.978-1.49-2.569-3.558-3.045-3.96-.23-.195-.134-.34 1.012-1.512.696-.712 1.313-1.296 1.37-1.296.057 0 .431.368.831.817zM60.81 28.72c-.783.282-1.486.578-1.564.657-.077.079-.184.364-.237.634-.078.396-.02.567.296.89.216.22.55.399.743.399.577 0 2.772-.794 3.141-1.136.46-.426.447-1.108-.031-1.594-.475-.484-.619-.475-2.348.15zm-41.27 1.11c-.248.178-.34.4-.34.827 0 .535.133.716 1.584 2.17 1.244 1.246 1.674 1.585 2.01 1.585.335 0 .764-.34 2.009-1.586 1.45-1.453 1.583-1.634 1.583-2.17 0-.676-.41-1.068-1.12-1.068-.332 0-.686.243-1.458 1.001l-1.019 1.002-1.013-1.002c-1.089-1.076-1.564-1.237-2.235-.759zm10.22.17c-.591.765-.365 1.227 1.498 3.055 1.888 1.852 1.889 1.852 3.948-.244 1.738-1.77 1.925-2.21 1.221-2.883-.636-.607-1.145-.456-2.238.666l-.978 1.005-1.046-1.005c-.865-.83-1.136-1.004-1.567-1.004-.381 0-.606.11-.838.41zm30.79 7.124c-.482.492-.497 1.17-.036 1.61.283.27.618.348 1.884.437 1.725.12 2.06.023 2.35-.69.153-.377.143-.539-.059-.937-.279-.548-.406-.587-2.342-.714-1.363-.09-1.43-.079-1.796.294zm-46.128-.026c-.418.323-.564.93-.348 1.446.106.253.82 1.073 1.585 1.822 1.897 1.857 1.903 1.856 3.96-.23 1.343-1.364 1.57-1.665 1.57-2.095a1.13 1.13 0 00-1.115-1.137c-.339 0-.686.237-1.461.998l-1.017.998-1.033-.998c-1.074-1.037-1.59-1.23-2.141-.804zm10.199.188c-.692.704-.538 1.07 1.2 2.839 1.379 1.404 1.639 1.603 2.093 1.603.455 0 .715-.2 2.095-1.603 1.737-1.77 1.891-2.135 1.2-2.84-.624-.633-1.056-.507-2.24.656l-1.055 1.037-1.055-1.037c-1.183-1.163-1.615-1.29-2.238-.655zm34.527 7.244c-.619.253-.86 1.195-.448 1.748.213.285 2.803 1.518 3.19 1.518.47 0 1.032-.625 1.032-1.148 0-.737-.232-.952-1.779-1.647-1.506-.677-1.498-.675-1.995-.471zm-4.605 6.696a1.136 1.136 0 00-.335.829c0 .434.183.692 1.206 1.706 1.341 1.329 1.75 1.467 2.393.811.656-.667.515-1.089-.82-2.447-1.31-1.334-1.797-1.513-2.444-.9zm-12.592.462c4.675 1.14 8.25 4.732 9.523 9.569.455 1.727.455 4.615 0 6.38-.89 3.46-3.216 6.535-6.26 8.278-3.26 1.868-7.651 2.122-11.142.644a15.208 15.208 0 01-2.01-1.064l-.908-.596.832-1.686c1.201-2.435 1.598-4.146 1.698-7.318.062-1.996.023-2.837-.19-4.046-.452-2.567-1.313-4.822-2.472-6.48-.622-.889-.625-.883.904-1.918 1.175-.795 2.9-1.533 4.318-1.847 1.451-.322 4.211-.281 5.707.084zm-1.195 3.733c-.456.464-.408 1.297.097 1.7.517.415.863.408 1.338-.027.808-.739.387-1.984-.671-1.984-.255 0-.595.138-.764.311z"/></mask><path fill-rule="evenodd" clip-rule="evenodd" d="M12.826 1.106c-.608.378-.963 1.053-.963 1.834 0 .452.19.899.777 1.836 1.396 2.228 1.922 3.766 2.083 6.092l.092 1.317-.52-.227a155.43 155.43 0 01-2.068-.946c-1.63-.757-2.198-.853-3.013-.506-.992.422-1.754 1.794-1.565 2.82.052.286.612 1.262 1.242 2.168 1.265 1.818 2.05 3.305 2.422 4.592.347 1.2.32 1.32-.405 1.805-1.136.76-3.514 3.343-4.586 4.982C3.108 31.788 1.596 37.93 1.823 45.15c.119 3.752.605 7.035 1.473 9.94l.296.993-.509 1.03c-1.086 2.2-1.766 5.292-1.766 8.033 0 3.495 1.214 8.01 2.319 8.63.545.305 1.2.073 1.481-.525.192-.408.17-.55-.266-1.63-1.827-4.534-1.575-10.344.612-14.14.827-1.435 2.609-3.158 3.954-3.822 1.824-.901 3.045-1.014 5.848-.541l1.031.173.01.715c.015 1.21.238 2.23.534 2.452.399.296 1.045.256 1.465-.091.337-.28.358-.39.32-1.692l-.042-1.393 1.599-.254c1.968-.312 2.644-.314 3.897-.013 2.898.695 5.346 3.22 6.556 6.762.63 1.847.863 3.354.853 5.525-.02 4.631-1.743 8.564-4.664 10.652-1.6 1.144-2.72 1.485-4.871 1.485-1.332 0-1.96-.071-2.591-.295-1.124-.398-2.537-.38-4.212.056-2.233.58-4.173.306-6.398-.903-.816-.443-.928-.466-1.373-.281-.58.24-.838.841-.627 1.462.112.33.46.59 1.54 1.142.767.392 1.832.813 2.368.933 1.502.34 3.78.277 5.408-.149l1.377-.36 1.604.404c3.602.905 6.85.244 9.598-1.955.908-.726 1.026-.78 1.317-.589 2.48 1.627 4.44 2.45 6.674 2.804 1.601.254 4.655.1 6.181-.311 1.561-.42 3.995-1.63 5.283-2.627.759-.586 1.225-.821 1.911-.965 1.477-.308 4.303-1.219 6.106-1.967 4.825-2.004 8.952-4.87 12.765-8.869 5.785-6.067 9.23-13.34 10.418-21.997.26-1.893.262-7.714.003-9.57-.69-4.959-1.863-8.75-4.015-12.982-1.648-3.238-3.746-6.247-6.113-8.765-1.684-1.792.935-4.087-22.152 19.409L26.92 51.523l-1.376-.486c-1.25-.442-1.538-.485-3.134-.47-.967.009-2.332.113-3.033.232-1.15.194-1.282.191-1.349-.032-.802-2.71-2.571-5.313-4.554-6.701-.825-.578-1.348-.599-1.865-.073-.5.51-.408 1.244.213 1.699 1.05.767 2.596 2.542 3.14 3.604.313.612.57 1.182.57 1.268 0 .1-.206.107-.574.02-.878-.208-2.898-.164-4.09.09-1.329.282-3.55 1.39-4.658 2.324-.605.51-.866.65-.946.504-.177-.322-.704-3.161-.9-4.85-.255-2.192-.216-6.633.077-8.87.789-6.01 2.873-10.884 6.158-14.404 2.128-2.28 4.683-3.818 7.652-4.608 1.151-.305 2.007-.412 3.818-.477 2.658-.094 3.986.07 6.074.75 4.64 1.509 8.437 4.908 10.568 9.46.466.995.9 1.914.964 2.043.064.128.29.333.5.455.511.296 1.248 0 1.492-.599.145-.357.113-.593-.196-1.428-1.222-3.305-3.55-6.568-6.205-8.696-.68-.546-1.238-1.072-1.238-1.17 0-.416.533-1.948 1.029-2.956.294-.6.984-1.717 1.532-2.483.549-.767 1.097-1.637 1.219-1.934.624-1.52-.742-3.448-2.437-3.439-.283.002-1.367.406-2.49.93l-1.986.925-.05-.488c-.07-.69.22-2.734.516-3.64.328-.999.944-2.236 1.729-3.472.943-1.486.852-2.624-.271-3.395-.837-.574-1.477-.476-3.585.55-1.023.499-2.267 1.171-2.765 1.496-1.162.756-2.547 2.103-3.155 3.067-.262.416-.497.757-.522.757-.024 0-.259-.34-.521-.757-.605-.96-1.991-2.31-3.14-3.057-.489-.319-1.723-.991-2.741-1.494-2.048-1.012-2.732-1.129-3.565-.612zM16.45 4.37c2.004 1.067 3.798 2.767 4.478 4.245.43.935.72 2.18.72 3.095 0 .741.533 1.386 1.146 1.386.574 0 1.147-.647 1.147-1.295 0-2.429 1.304-4.756 3.592-6.41.934-.674 3.44-2.024 3.44-1.852 0 .052-.129.28-.286.507-1.395 2.011-2.15 5.13-2.157 8.912-.003 1.542.294 2.16 1.04 2.16.226 0 1.613-.56 3.085-1.245 1.47-.684 2.76-1.244 2.865-1.244.342 0 .209.281-.786 1.67-1.164 1.624-1.924 3.02-2.395 4.398-.19.557-.395 1.07-.456 1.142-.061.072-.583-.08-1.16-.335-2.489-1.103-4.896-1.583-7.95-1.584-2.846 0-5.202.487-7.856 1.626l-1.205.517-.331-1.033c-.462-1.437-1.22-2.872-2.453-4.64-.627-.897-.998-1.566-.916-1.65.131-.133 2.619.903 4.638 1.932 1.124.574 1.675.578 2.114.019.323-.412.332-.517.24-2.763-.145-3.518-.653-5.551-1.876-7.51-.282-.452-.512-.851-.512-.888 0-.076.81.295 1.834.84zm52.063 10.01c4.302 4.835 7.354 11.587 8.423 18.634.332 2.184.376 7.75.078 9.88-1.082 7.756-4.376 14.73-9.572 20.27-2.96 3.156-6.068 5.49-9.87 7.411-2.044 1.034-5.09 2.275-5.58 2.275-.14 0 .009-.433.45-1.314.362-.722.786-1.745.941-2.273.21-.711.374-.995.635-1.096.193-.075 1.095-.516 2.004-.98 3.224-1.644 5.539-3.357 8.21-6.076 3.834-3.903 6.245-7.938 7.907-13.237.663-2.114.93-3.407.805-3.913-.126-.511-.901-.852-1.476-.648-.503.178-.529.234-1.058 2.305-1.865 7.294-6.163 13.48-12.24 17.614-1.202.819-3.777 2.307-3.984 2.303-.03 0-.068-.718-.086-1.595-.114-5.5-3.518-10.83-8.519-13.339-2.41-1.209-3.638-1.482-6.659-1.482-2.163 0-2.707.051-3.822.361-1.528.425-3.538 1.353-4.642 2.143-.431.31 6.813-7.179 16.098-16.64 9.286-9.46 16.937-17.167 17.002-17.126.195.122 1.853 2.242 2.606 3.33 1.536 2.222 3.116 5.593 3.932 8.39.602 2.06 1.062 4.932 1.184 7.382.091 1.837.135 2.067.45 2.39.464.47 1.049.452 1.541-.05l.398-.404-.1-2.015c-.307-6.17-2.065-11.74-5.224-16.55-.978-1.49-2.569-3.558-3.045-3.96-.23-.195-.134-.34 1.012-1.512.696-.712 1.313-1.296 1.37-1.296.057 0 .431.368.831.817zM60.81 28.72c-.783.282-1.486.578-1.564.657-.077.079-.184.364-.237.634-.078.396-.02.567.296.89.216.22.55.399.743.399.577 0 2.772-.794 3.141-1.136.46-.426.447-1.108-.031-1.594-.475-.484-.619-.475-2.348.15zm-41.27 1.11c-.248.178-.34.4-.34.827 0 .535.133.716 1.584 2.17 1.244 1.246 1.674 1.585 2.01 1.585.335 0 .764-.34 2.009-1.586 1.45-1.453 1.583-1.634 1.583-2.17 0-.676-.41-1.068-1.12-1.068-.332 0-.686.243-1.458 1.001l-1.019 1.002-1.013-1.002c-1.089-1.076-1.564-1.237-2.235-.759zm10.22.17c-.591.765-.365 1.227 1.498 3.055 1.888 1.852 1.889 1.852 3.948-.244 1.738-1.77 1.925-2.21 1.221-2.883-.636-.607-1.145-.456-2.238.666l-.978 1.005-1.046-1.005c-.865-.83-1.136-1.004-1.567-1.004-.381 0-.606.11-.838.41zm30.79 7.124c-.482.492-.497 1.17-.036 1.61.283.27.618.348 1.884.437 1.725.12 2.06.023 2.35-.69.153-.377.143-.539-.059-.937-.279-.548-.406-.587-2.342-.714-1.363-.09-1.43-.079-1.796.294zm-46.128-.026c-.418.323-.564.93-.348 1.446.106.253.82 1.073 1.585 1.822 1.897 1.857 1.903 1.856 3.96-.23 1.343-1.364 1.57-1.665 1.57-2.095a1.13 1.13 0 00-1.115-1.137c-.339 0-.686.237-1.461.998l-1.017.998-1.033-.998c-1.074-1.037-1.59-1.23-2.141-.804zm10.199.188c-.692.704-.538 1.07 1.2 2.839 1.379 1.404 1.639 1.603 2.093 1.603.455 0 .715-.2 2.095-1.603 1.737-1.77 1.891-2.135 1.2-2.84-.624-.633-1.056-.507-2.24.656l-1.055 1.037-1.055-1.037c-1.183-1.163-1.615-1.29-2.238-.655zm34.527 7.244c-.619.253-.86 1.195-.448 1.748.213.285 2.803 1.518 3.19 1.518.47 0 1.032-.625 1.032-1.148 0-.737-.232-.952-1.779-1.647-1.506-.677-1.498-.675-1.995-.471zm-4.605 6.696a1.136 1.136 0 00-.335.829c0 .434.183.692 1.206 1.706 1.341 1.329 1.75 1.467 2.393.811.656-.667.515-1.089-.82-2.447-1.31-1.334-1.797-1.513-2.444-.9zm-12.592.462c4.675 1.14 8.25 4.732 9.523 9.569.455 1.727.455 4.615 0 6.38-.89 3.46-3.216 6.535-6.26 8.278-3.26 1.868-7.651 2.122-11.142.644a15.208 15.208 0 01-2.01-1.064l-.908-.596.832-1.686c1.201-2.435 1.598-4.146 1.698-7.318.062-1.996.023-2.837-.19-4.046-.452-2.567-1.313-4.822-2.472-6.48-.622-.889-.625-.883.904-1.918 1.175-.795 2.9-1.533 4.318-1.847 1.451-.322 4.211-.281 5.707.084zm-1.195 3.733c-.456.464-.408 1.297.097 1.7.517.415.863.408 1.338-.027.808-.739.387-1.984-.671-1.984-.255 0-.595.138-.764.311z" fill="#fff"/><path clip-rule="evenodd" d="M12.826 1.106c-.608.378-.963 1.053-.963 1.834 0 .452.19.899.777 1.836 1.396 2.228 1.922 3.766 2.083 6.092l.092 1.317-.52-.227a155.43 155.43 0 01-2.068-.946c-1.63-.757-2.198-.853-3.013-.506-.992.422-1.754 1.794-1.565 2.82.052.286.612 1.262 1.242 2.168 1.265 1.818 2.05 3.305 2.422 4.592.347 1.2.32 1.32-.405 1.805-1.136.76-3.514 3.343-4.586 4.982C3.108 31.788 1.596 37.93 1.823 45.15c.119 3.752.605 7.035 1.473 9.94l.296.993-.509 1.03c-1.086 2.2-1.766 5.292-1.766 8.033 0 3.495 1.214 8.01 2.319 8.63.545.305 1.2.073 1.481-.525.192-.408.17-.55-.266-1.63-1.827-4.534-1.575-10.344.612-14.14.827-1.435 2.609-3.158 3.954-3.822 1.824-.901 3.045-1.014 5.848-.541l1.031.173.01.715c.015 1.21.238 2.23.534 2.452.399.296 1.045.256 1.465-.091.337-.28.358-.39.32-1.692l-.042-1.393 1.599-.254c1.968-.312 2.644-.314 3.897-.013 2.898.695 5.346 3.22 6.556 6.762.63 1.847.863 3.354.853 5.525-.02 4.631-1.743 8.564-4.664 10.652-1.6 1.144-2.72 1.485-4.871 1.485-1.332 0-1.96-.071-2.591-.295-1.124-.398-2.537-.38-4.212.056-2.233.58-4.173.306-6.398-.903-.816-.443-.928-.466-1.373-.281-.58.24-.838.841-.627 1.462.112.33.46.59 1.54 1.142.767.392 1.832.813 2.368.933 1.502.34 3.78.277 5.408-.149l1.377-.36 1.604.404c3.602.905 6.85.244 9.598-1.955.908-.726 1.026-.78 1.317-.589 2.48 1.627 4.44 2.45 6.674 2.804 1.601.254 4.655.1 6.181-.311 1.561-.42 3.995-1.63 5.283-2.627.759-.586 1.225-.821 1.911-.965 1.477-.308 4.303-1.219 6.106-1.967 4.825-2.004 8.952-4.87 12.765-8.869 5.785-6.067 9.23-13.34 10.418-21.997.26-1.893.262-7.714.003-9.57-.69-4.959-1.863-8.75-4.015-12.982-1.648-3.238-3.746-6.247-6.113-8.765-1.684-1.792.935-4.087-22.152 19.409L26.92 51.523l-1.376-.486c-1.25-.442-1.538-.485-3.134-.47-.967.009-2.332.113-3.033.232-1.15.194-1.282.191-1.349-.032-.802-2.71-2.571-5.313-4.554-6.701-.825-.578-1.348-.599-1.865-.073-.5.51-.408 1.244.213 1.699 1.05.767 2.596 2.542 3.14 3.604.313.612.57 1.182.57 1.268 0 .1-.206.107-.574.02-.878-.208-2.898-.164-4.09.09-1.329.282-3.55 1.39-4.658 2.324-.605.51-.866.65-.946.504-.177-.322-.704-3.161-.9-4.85-.255-2.192-.216-6.633.077-8.87.789-6.01 2.873-10.884 6.158-14.404 2.128-2.28 4.683-3.818 7.652-4.608 1.151-.305 2.007-.412 3.818-.477 2.658-.094 3.986.07 6.074.75 4.64 1.509 8.437 4.908 10.568 9.46.466.995.9 1.914.964 2.043.064.128.29.333.5.455.511.296 1.248 0 1.492-.599.145-.357.113-.593-.196-1.428-1.222-3.305-3.55-6.568-6.205-8.696-.68-.546-1.238-1.072-1.238-1.17 0-.416.533-1.948 1.029-2.956.294-.6.984-1.717 1.532-2.483.549-.767 1.097-1.637 1.219-1.934.624-1.52-.742-3.448-2.437-3.439-.283.002-1.367.406-2.49.93l-1.986.925-.05-.488c-.07-.69.22-2.734.516-3.64.328-.999.944-2.236 1.729-3.472.943-1.486.852-2.624-.271-3.395-.837-.574-1.477-.476-3.585.55-1.023.499-2.267 1.171-2.765 1.496-1.162.756-2.547 2.103-3.155 3.067-.262.416-.497.757-.522.757-.024 0-.259-.34-.521-.757-.605-.96-1.991-2.31-3.14-3.057-.489-.319-1.723-.991-2.741-1.494-2.048-1.012-2.732-1.129-3.565-.612zM16.45 4.37c2.004 1.067 3.798 2.767 4.478 4.245.43.935.72 2.18.72 3.095 0 .741.533 1.386 1.146 1.386.574 0 1.147-.647 1.147-1.295 0-2.429 1.304-4.756 3.592-6.41.934-.674 3.44-2.024 3.44-1.852 0 .052-.129.28-.286.507-1.395 2.011-2.15 5.13-2.157 8.912-.003 1.542.294 2.16 1.04 2.16.226 0 1.613-.56 3.085-1.245 1.47-.684 2.76-1.244 2.865-1.244.342 0 .209.281-.786 1.67-1.164 1.624-1.924 3.02-2.395 4.398-.19.557-.395 1.07-.456 1.142-.061.072-.583-.08-1.16-.335-2.489-1.103-4.896-1.583-7.95-1.584-2.846 0-5.202.487-7.856 1.626l-1.205.517-.331-1.033c-.462-1.437-1.22-2.872-2.453-4.64-.627-.897-.998-1.566-.916-1.65.131-.133 2.619.903 4.638 1.932 1.124.574 1.675.578 2.114.019.323-.412.332-.517.24-2.763-.145-3.518-.653-5.551-1.876-7.51-.282-.452-.512-.851-.512-.888 0-.076.81.295 1.834.84zm52.063 10.01c4.302 4.835 7.354 11.587 8.423 18.634.332 2.184.376 7.75.078 9.88-1.082 7.756-4.376 14.73-9.572 20.27-2.96 3.156-6.068 5.49-9.87 7.411-2.044 1.034-5.09 2.275-5.58 2.275-.14 0 .009-.433.45-1.314.362-.722.786-1.745.941-2.273.21-.711.374-.995.635-1.096.193-.075 1.095-.516 2.004-.98 3.224-1.644 5.539-3.357 8.21-6.076 3.834-3.903 6.245-7.938 7.907-13.237.663-2.114.93-3.407.805-3.913-.126-.511-.901-.852-1.476-.648-.503.178-.529.234-1.058 2.305-1.865 7.294-6.163 13.48-12.24 17.614-1.202.819-3.777 2.307-3.984 2.303-.03 0-.068-.718-.086-1.595-.114-5.5-3.518-10.83-8.519-13.339-2.41-1.209-3.638-1.482-6.659-1.482-2.163 0-2.707.051-3.822.361-1.528.425-3.538 1.353-4.642 2.143-.431.31 6.813-7.179 16.098-16.64 9.286-9.46 16.937-17.167 17.002-17.126.195.122 1.853 2.242 2.606 3.33 1.536 2.222 3.116 5.593 3.932 8.39.602 2.06 1.062 4.932 1.184 7.382.091 1.837.135 2.067.45 2.39.464.47 1.049.452 1.541-.05l.398-.404-.1-2.015c-.307-6.17-2.065-11.74-5.224-16.55-.978-1.49-2.569-3.558-3.045-3.96-.23-.195-.134-.34 1.012-1.512.696-.712 1.313-1.296 1.37-1.296.057 0 .431.368.831.817zM60.81 28.72c-.783.282-1.486.578-1.564.657-.077.079-.184.364-.237.634-.078.396-.02.567.296.89.216.22.55.399.743.399.577 0 2.772-.794 3.141-1.136.46-.426.447-1.108-.031-1.594-.475-.484-.619-.475-2.348.15zm-41.27 1.11c-.248.178-.34.4-.34.827 0 .535.133.716 1.584 2.17 1.244 1.246 1.674 1.585 2.01 1.585.335 0 .764-.34 2.009-1.586 1.45-1.453 1.583-1.634 1.583-2.17 0-.676-.41-1.068-1.12-1.068-.332 0-.686.243-1.458 1.001l-1.019 1.002-1.013-1.002c-1.089-1.076-1.564-1.237-2.235-.759zm10.22.17c-.591.765-.365 1.227 1.498 3.055 1.888 1.852 1.889 1.852 3.948-.244 1.738-1.77 1.925-2.21 1.221-2.883-.636-.607-1.145-.456-2.238.666l-.978 1.005-1.046-1.005c-.865-.83-1.136-1.004-1.567-1.004-.381 0-.606.11-.838.41zm30.79 7.124c-.482.492-.497 1.17-.036 1.61.283.27.618.348 1.884.437 1.725.12 2.06.023 2.35-.69.153-.377.143-.539-.059-.937-.279-.548-.406-.587-2.342-.714-1.363-.09-1.43-.079-1.796.294zm-46.128-.026c-.418.323-.564.93-.348 1.446.106.253.82 1.073 1.585 1.822 1.897 1.857 1.903 1.856 3.96-.23 1.343-1.364 1.57-1.665 1.57-2.095a1.13 1.13 0 00-1.115-1.137c-.339 0-.686.237-1.461.998l-1.017.998-1.033-.998c-1.074-1.037-1.59-1.23-2.141-.804zm10.199.188c-.692.704-.538 1.07 1.2 2.839 1.379 1.404 1.639 1.603 2.093 1.603.455 0 .715-.2 2.095-1.603 1.737-1.77 1.891-2.135 1.2-2.84-.624-.633-1.056-.507-2.24.656l-1.055 1.037-1.055-1.037c-1.183-1.163-1.615-1.29-2.238-.655zm34.527 7.244c-.619.253-.86 1.195-.448 1.748.213.285 2.803 1.518 3.19 1.518.47 0 1.032-.625 1.032-1.148 0-.737-.232-.952-1.779-1.647-1.506-.677-1.498-.675-1.995-.471zm-4.605 6.696a1.136 1.136 0 00-.335.829c0 .434.183.692 1.206 1.706 1.341 1.329 1.75 1.467 2.393.811.656-.667.515-1.089-.82-2.447-1.31-1.334-1.797-1.513-2.444-.9zm-12.592.462c4.675 1.14 8.25 4.732 9.523 9.569.455 1.727.455 4.615 0 6.38-.89 3.46-3.216 6.535-6.26 8.278-3.26 1.868-7.651 2.122-11.142.644a15.208 15.208 0 01-2.01-1.064l-.908-.596.832-1.686c1.201-2.435 1.598-4.146 1.698-7.318.062-1.996.023-2.837-.19-4.046-.452-2.567-1.313-4.822-2.472-6.48-.622-.889-.625-.883.904-1.918 1.175-.795 2.9-1.533 4.318-1.847 1.451-.322 4.211-.281 5.707.084zm-1.195 3.733c-.456.464-.408 1.297.097 1.7.517.415.863.408 1.338-.027.808-.739.387-1.984-.671-1.984-.255 0-.595.138-.764.311z" stroke="#fff" stroke-width="1.6" mask="url(#a)"/></svg>