<svg width="77" height="70" fill="none" xmlns="http://www.w3.org/2000/svg"><mask id="a" maskUnits="userSpaceOnUse" x=".29" y="0" width="77" height="70" fill="#000"><path fill="#fff" d="M.29 0h77v70h-77z"/><path d="M55.29 29.126h.817c3.525.007 7.05-.053 10.569.04 4.51.12 8.64 3.794 9.38 8.087.289 1.675-.13 3.243-.458 4.831-1.177 5.722-2.348 11.45-3.583 17.158-.695 3.21-2.142 6.047-4.914 8.107-1.64 1.216-3.513 1.675-5.597 1.648-4.593-.066-9.193-.02-13.792-.02-5.198 0-10.396.027-15.593-.026-3.873-.04-7.16-1.482-9.907-4.087-.135-.126-.27-.246-.43-.392-.22.485-.38.95-.625 1.376-1.093 1.927-2.785 3.037-5.069 3.096-2.876.08-5.757.06-8.633.027-3.59-.04-6.163-2.585-6.163-6.054-.006-9.25 0-18.507 0-27.757 0-.306.04-.618.078-.924.418-2.983 2.9-5.09 6.047-5.097 4.04-.013 8.08.027 12.113-.006 5.944-.047 10.466-2.519 13.425-7.503 1.267-2.14 1.769-4.492 1.782-6.95.006-1.263 0-2.52 0-3.782.013-5.11 4.072-9.456 9.205-9.861C49.526.598 54.3 4.14 55.148 9.37c.09.565.116 1.15.116 1.728.006 5.741.006 11.482.006 17.224.02.233.02.472.02.804zm-33.387 3.728a1.659 1.659 0 00-.012.206c0 7.456-.026 14.912.019 22.368.026 4.28 3.287 8.313 7.59 9.403 1.107.279 2.284.412 3.43.412 9.513.033 19.028-.02 28.542.046 2.13.014 3.602-.83 4.792-2.372 1.055-1.369 1.673-2.917 2.02-4.572a2625.615 2625.615 0 003.57-17.218c.22-1.063.515-2.193.341-3.223-.501-3.043-3.132-5.057-6.349-5.063-4.04-.007-8.073 0-12.113-.007-1.544 0-2.296-.73-2.303-2.2v-2.478c0-5.762.013-11.523-.006-17.284-.013-4.047-3.873-6.938-7.951-5.994-2.837.657-4.812 3.09-4.87 5.96-.045 2.147.09 4.32-.232 6.426-1.087 7.097-5.236 11.942-12.196 14.5-1.345.492-2.799.718-4.272 1.09zm-3.885-.02H7.642c-1.602 0-2.49.87-2.49 2.426v27.498c0 1.641.869 2.485 2.567 2.491 2.554.007 5.108.007 7.668 0 1.801 0 2.637-.81 2.637-2.538V33.598c-.006-.212-.006-.438-.006-.764z"/></mask><path d="M55.29 29.126h.817c3.525.007 7.05-.053 10.569.04 4.51.12 8.64 3.794 9.38 8.087.289 1.675-.13 3.243-.458 4.831-1.177 5.722-2.348 11.45-3.583 17.158-.695 3.21-2.142 6.047-4.914 8.107-1.64 1.216-3.513 1.675-5.597 1.648-4.593-.066-9.193-.02-13.792-.02-5.198 0-10.396.027-15.593-.026-3.873-.04-7.16-1.482-9.907-4.087-.135-.126-.27-.246-.43-.392-.22.485-.38.95-.625 1.376-1.093 1.927-2.785 3.037-5.069 3.096-2.876.08-5.757.06-8.633.027-3.59-.04-6.163-2.585-6.163-6.054-.006-9.25 0-18.507 0-27.757 0-.306.04-.618.078-.924.418-2.983 2.9-5.09 6.047-5.097 4.04-.013 8.08.027 12.113-.006 5.944-.047 10.466-2.519 13.425-7.503 1.267-2.14 1.769-4.492 1.782-6.95.006-1.263 0-2.52 0-3.782.013-5.11 4.072-9.456 9.205-9.861C49.526.598 54.3 4.14 55.148 9.37c.09.565.116 1.15.116 1.728.006 5.741.006 11.482.006 17.224.02.233.02.472.02.804zm-33.387 3.728a1.659 1.659 0 00-.012.206c0 7.456-.026 14.912.019 22.368.026 4.28 3.287 8.313 7.59 9.403 1.107.279 2.284.412 3.43.412 9.513.033 19.028-.02 28.542.046 2.13.014 3.602-.83 4.792-2.372 1.055-1.369 1.673-2.917 2.02-4.572a2625.615 2625.615 0 003.57-17.218c.22-1.063.515-2.193.341-3.223-.501-3.043-3.132-5.057-6.349-5.063-4.04-.007-8.073 0-12.113-.007-1.544 0-2.296-.73-2.303-2.2v-2.478c0-5.762.013-11.523-.006-17.284-.013-4.047-3.873-6.938-7.951-5.994-2.837.657-4.812 3.09-4.87 5.96-.045 2.147.09 4.32-.232 6.426-1.087 7.097-5.236 11.942-12.196 14.5-1.345.492-2.799.718-4.272 1.09zm-3.885-.02H7.642c-1.602 0-2.49.87-2.49 2.426v27.498c0 1.641.869 2.485 2.567 2.491 2.554.007 5.108.007 7.668 0 1.801 0 2.637-.81 2.637-2.538V33.598c-.006-.212-.006-.438-.006-.764z" fill="#fff"/><path d="M55.29 29.126h-.6v.6h.6v-.6zm.817 0l.001-.6h-.001v.6zm10.569.04l.016-.6-.016.6zm9.38 8.087l-.592.102.591-.102zm-.458 4.831l-.587-.121.587.121zm-3.583 17.158l.587.127-.587-.127zm-4.914 8.107l.357.482-.357-.482zm-5.597 1.648l-.009.6h.001l.008-.6zm-29.385-.046l-.007.6.007-.6zm-9.907-4.087l.413-.435-.003-.003-.41.438zm-.43-.392l.403-.444-.611-.555-.34.752.547.247zm-.625 1.376l-.52-.3-.002.004.522.296zm-5.069 3.096l-.016-.6.016.6zm-8.633.027l.007-.6-.007.6zm-6.163-6.054h.6-.6zm.078-28.68l-.595-.084v.008l.595.075zm6.047-5.098v.6h.002l-.002-.6zm12.113-.006l-.005-.6.005.6zm13.425-7.503l.516.306-.516-.306zm1.782-6.95l.6.002-.6-.003zm0-3.782l-.6-.001v.001h.6zm9.205-9.861l-.047-.599.047.599zM55.148 9.37l.593-.095v-.001l-.593.096zm.116 1.728h-.6.6zm.006 17.224h-.6v.025l.003.025.597-.05zm-33.367 4.532l-.147-.582-.392.1-.055.4.594.082zm.007 22.574l.6-.004-.6.004zm7.59 9.403l-.147.581.147-.581zm3.43.412l.001-.6h-.002v.6zm28.542.046l-.004.6.004-.6zm4.792-2.372l.475.367-.475-.367zm2.02-4.572l.587.123-.587-.123zm3.57-17.218l-.587-.12v.001l.587.12zm.341-3.223l-.592.098v.002l.592-.1zm-6.349-5.063l.001-.6v.6zm-12.113-.007l.001-.6v.6zm-2.303-2.2h-.6v.003l.6-.003zm-.006-19.762l-.6.002.6-.002zm-7.951-5.994l-.136-.585.136.585zm-4.87 5.96l.6.013-.6-.013zm-.232 6.426l.593.091-.593-.09zm-12.196 14.5l.206.564-.206-.564zm-8.157 1.07h.6v-.6h-.6v.6zM7.718 65.25l-.001.6.002-.6zm7.669 0v-.6h-.002l.002.6zm2.637-31.65h.6v-.019l-.6.018zm37.266-3.873h.817v-1.2h-.817v1.2zm.816 0c3.54.007 7.045-.053 10.554.04l.032-1.2c-3.528-.093-7.074-.033-10.584-.04l-.002 1.2zm10.554.04c4.22.112 8.112 3.575 8.804 7.59l1.182-.205c-.787-4.571-5.156-8.458-9.954-8.585l-.032 1.2zm8.804 7.59c.265 1.534-.114 2.967-.453 4.607l1.175.243c.317-1.537.774-3.24.46-5.055l-1.182.204zm-.453 4.607c-1.178 5.723-2.348 11.448-3.582 17.152l1.173.254c1.236-5.712 2.407-11.444 3.584-17.164l-1.175-.242zm-3.582 17.152c-.673 3.109-2.06 5.801-4.686 7.753l.715.963c2.92-2.169 4.427-5.15 5.144-8.462l-1.173-.254zm-4.686 7.753c-1.51 1.12-3.245 1.555-5.231 1.53l-.016 1.2c2.182.027 4.192-.454 5.962-1.767l-.715-.963zm-5.23 1.53c-4.6-.067-9.21-.02-13.801-.02v1.2c4.608 0 9.196-.047 13.783.02l.018-1.2zm-13.801-.02c-5.202 0-10.394.026-15.587-.027l-.012 1.2c5.201.053 10.405.026 15.599.026v-1.2zm-15.587-.027c-3.71-.038-6.855-1.414-9.5-3.922l-.826.87c2.85 2.702 6.28 4.21 10.313 4.252l.013-1.2zm-9.503-3.925c-.139-.13-.284-.259-.437-.398l-.807.888c.168.153.293.264.424.386l.82-.876zm-1.388-.2c-.25.553-.37.928-.597 1.323l1.04.598c.263-.457.463-1.012.651-1.428l-1.094-.494zm-.599 1.326c-.997 1.757-2.504 2.739-4.563 2.792l.032 1.2c2.508-.066 4.385-1.303 5.575-3.4l-1.044-.593zm-4.564 2.792c-2.862.08-5.734.06-8.609.027l-.014 1.2c2.876.033 5.768.053 8.657-.027l-.034-1.2zm-8.61.027c-3.275-.036-5.569-2.329-5.569-5.454h-1.2c0 3.813 2.853 6.61 6.756 6.654l.014-1.2zm-5.569-5.454c-.006-9.25 0-18.506 0-27.757h-1.2c0 9.25-.006 18.507 0 27.758l1.2-.001zm0-27.757c0-.262.034-.538.073-.849l-1.19-.15c-.039.3-.083.65-.083.999h1.2zm.072-.84c.374-2.672 2.59-4.575 5.454-4.58l-.003-1.2c-3.427.007-6.178 2.317-6.64 5.613l1.189.166zm5.455-4.58c4.024-.014 8.085.026 12.116-.007l-.01-1.2c-4.036.033-8.055-.007-12.11.006l.004 1.2zm12.115-.007c6.141-.048 10.864-2.62 13.937-7.797l-1.032-.612c-2.845 4.792-7.167 7.164-12.914 7.209l.01 1.2zm13.937-7.797c1.334-2.251 1.853-4.714 1.866-7.254l-1.2-.006c-.013 2.378-.497 4.62-1.698 6.649l1.032.611zm1.866-7.254c.006-1.264 0-2.526 0-3.784h-1.2c0 1.267.006 2.517 0 3.778l1.2.006zm0-3.782c.012-4.794 3.826-8.884 8.652-9.265L43.895.438c-5.44.43-9.745 5.032-9.758 10.459l1.2.003zm8.652-9.265c5.302-.417 9.773 2.937 10.567 7.83l1.185-.191C54.837 3.708 49.76-.022 43.895.438l.094 1.197zm10.567 7.83c.083.52.108 1.07.108 1.633h1.2c0-.594-.026-1.214-.123-1.823l-1.185.19zm.108 1.633c.007 5.741.006 11.482.006 17.224h1.2c0-5.741 0-11.483-.006-17.225l-1.2.001zm.009 17.274c.016.203.017.415.017.754h1.2c0-.325 0-.591-.022-.854l-1.195.1zm-33.364 4.4a2.25 2.25 0 00-.018.288h1.2a1.172 1.172 0 01.007-.124l-1.189-.164zm-.018.288c0 7.453-.026 14.913.019 22.371l1.2-.007c-.045-7.453-.02-14.905-.02-22.364h-1.2zm.019 22.371c.027 4.568 3.49 8.828 8.043 9.981l.295-1.163c-4.054-1.026-7.114-4.833-7.138-8.825l-1.2.008zm8.044 9.982a14.78 14.78 0 003.575.43v-1.2c-1.1 0-2.228-.128-3.282-.394l-.293 1.164zm3.573.43c9.525.033 19.025-.02 28.54.046l.009-1.2c-9.512-.066-19.04-.013-28.545-.046l-.004 1.2zm28.541.046c2.335.015 3.978-.93 5.271-2.605l-.95-.734c-1.087 1.409-2.39 2.151-4.313 2.14l-.008 1.2zm5.272-2.606c1.121-1.455 1.77-3.093 2.131-4.815l-1.174-.246c-.333 1.587-.92 3.047-1.908 4.329l.95.732zm2.131-4.815a2633.533 2633.533 0 003.572-17.221l-1.177-.239a2633.566 2633.566 0 01-3.569 17.214l1.174.246zm3.571-17.22c.206-1 .542-2.273.345-3.443l-1.183.2c.15.889-.105 1.875-.337 3.002l1.175.241zm.345-3.441c-.555-3.37-3.47-5.56-6.94-5.566l-.002 1.2c2.963.006 5.31 1.844 5.758 4.561l1.184-.195zm-6.94-5.566c-2.02-.004-4.04-.004-6.057-.004-2.019 0-4.037 0-6.056-.003l-.002 1.2c2.02.003 4.04.003 6.058.003s4.036 0 6.055.004l.002-1.2zm-12.114-.007c-.687 0-1.084-.163-1.313-.382-.224-.215-.387-.582-.39-1.22l-1.2.005c.004.83.22 1.563.76 2.081.535.514 1.286.716 2.143.716v-1.2zm-1.703-1.6v-2.48h-1.2v2.48h1.2zm0-2.478c0-5.76.013-11.524-.006-17.286l-1.2.004c.019 5.76.006 11.519.006 17.282h1.2zm-.006-17.286c-.014-4.464-4.265-7.6-8.687-6.577l.27 1.17c3.736-.865 7.205 1.78 7.217 5.41l1.2-.003zm-8.687-6.577c-3.102.72-5.27 3.385-5.334 6.533l1.2.024c.052-2.593 1.833-4.791 4.405-5.388l-.27-1.169zm-5.334 6.533c-.046 2.215.09 4.292-.225 6.348l1.187.18c.329-2.157.194-4.425.238-6.503l-1.2-.025zm-.225 6.348c-1.051 6.866-5.04 11.539-11.81 14.027l.414 1.126c7.15-2.628 11.46-7.644 12.582-14.972l-1.186-.181zM25.968 31.2c-1.308.479-2.662.68-4.212 1.071l.294 1.164c1.396-.353 2.951-.604 4.33-1.108l-.41-1.127zm-7.95 1.033h-.714v1.2h.714v-1.2zm-.714 0H7.64v1.2h9.665v-1.2zm-9.662 0c-.906 0-1.698.248-2.265.8-.568.555-.825 1.335-.825 2.226h1.2c0-.665.188-1.098.463-1.367.278-.271.73-.459 1.427-.459v-1.2zm-3.09 3.026v27.499h1.2V35.261h-1.2zm0 27.498c0 .922.246 1.723.829 2.289.58.563 1.395.799 2.336.803l.004-1.2c-.758-.003-1.225-.193-1.504-.464-.276-.268-.465-.71-.465-1.428h-1.2zm3.165 3.092c2.555.006 5.11.006 7.671 0l-.003-1.2c-2.559.006-5.112.006-7.665 0l-.003 1.2zm7.67 0c.977 0 1.819-.22 2.41-.79.597-.575.827-1.398.827-2.349h-1.2c0 .776-.188 1.223-.46 1.485-.276.267-.753.454-1.577.454v1.2zm3.237-3.139V33.598h-1.2v29.113h1.2zm0-29.13c-.006-.203-.006-.419-.006-.747h-1.2c0 .323 0 .559.007.782l1.199-.036z" fill="#fff" mask="url(#a)"/></svg>