<svg width="118" height="38" fill="none" xmlns="http://www.w3.org/2000/svg"><path d="M18.094 7.294V.049H0V38h7.372V22.13h6.031v-7.936H7.372v-6.9h10.722zM40.544.049H23.455V38h17.09v-8.28h-9.048v-7.59h5.026v-7.936h-5.026v-6.9h9.047V.049zM46.91 38V.049c8.042 0 21.445 2 21.445 19.665S55.958 38 46.911 38zm27.477 0V.049c11.057 0 17.759-.69 17.759 10.695 0 11.386-5.585 10.58-8.377 11.386L93.82 38H74.387zm43.224-34.846l-16.083 16.56c-2.57-2.875-6.166-10.212 0-16.56 6.165-6.348 14.743-1.38 16.083 0zM98.512 34.205l16.084-16.56c2.569 2.874 6.165 10.212 0 16.56-6.166 6.348-14.743 1.38-16.084 0z" fill="#FCFEFD"/></svg>