<svg width="138" height="44" fill="none" xmlns="http://www.w3.org/2000/svg"><path d="M21.16 8.446V.056H0V44h8.621V25.624h7.054v-9.189H8.62v-7.99h12.54zM47.416.056H27.431V44h19.985v-9.588h-10.58v-8.788h5.878v-9.189h-5.878v-7.99h10.58V.057zM54.861 44V.056c9.405 0 25.08 2.318 25.08 22.771 0 20.454-14.5 21.173-25.08 21.173zm32.134 0V.056c12.931 0 20.769-.799 20.769 12.385 0 13.183-6.531 12.25-9.797 13.183L109.723 44H86.995zm50.551-40.348l-18.81 19.175c-3.004-3.329-7.21-11.825 0-19.175 7.21-7.35 17.242-1.598 18.81 0zm-22.337 35.953l18.81-19.175c3.004 3.33 7.21 11.825 0 19.175-7.211 7.351-17.242 1.598-18.81 0z" fill="#FCFEFD"/></svg>