<svg width="76" height="76" fill="none" xmlns="http://www.w3.org/2000/svg"><mask id="a" maskUnits="userSpaceOnUse" x="12.237" y="11.7" width="52" height="53" fill="#000"><path fill="#fff" d="M12.237 11.7h52v53h-52z"/><path d="M45.034 63.299h-2.141c-.109-.03-.218-.074-.326-.08a12.76 12.76 0 01-4.145-1.176c-1.411-.667-2.648-1.58-3.752-2.676-4.361 1.99-8.457.3-10.599-2.364-1.17-1.458-1.852-3.13-1.979-5.003-.168-2.456.58-4.63 2.202-6.59H13.237V30.596h11.051c-.157-.202-.247-.313-.337-.429-1.11-1.44-1.744-3.074-1.864-4.9-.44-6.595 6.128-11.353 12.137-8.787.332.14.513.11.79-.135 3.42-3.154 7.42-4.324 11.926-3.264 6.039 1.415 10.147 6.804 10.16 13.16 0 .454.108.73.488 1.005 2.389 1.751 4.047 4.06 4.88 6.939.26.894.386 1.825.58 2.737v2.174c-.031.092-.073.184-.08.282-.428 3.858-2.19 6.945-5.223 9.278-.483.367-.646.723-.652 1.323-.036 5.83-3.698 10.9-9.163 12.689-.947.3-1.937.422-2.896.63zm1.858-14.919c.314 0 .585.012.857 0 1.327-.06 2.672.012 3.97-.208 6.243-1.06 10.001-7.839 7.72-13.834-1.52-4-5.29-6.657-9.519-6.7-1.001-.012-2.002 0-3.016 0v-2.952c2.437-.024 4.85-.16 7.185.716.127-4.378-3.91-8.873-8.578-9.596-2.498-.386-4.857.086-6.98 1.488-3.137 2.07-4.675 5.083-4.826 8.837h-2.89c.013-2.535.676-4.85 1.961-7.042-.241-.068-.434-.135-.633-.178-.332-.061-.67-.135-1.008-.153-3.281-.153-6.08 2.45-6.153 5.714-.078 3.386 2.522 6.105 5.852 6.13 1.278.006 2.563.024 3.842-.012.453-.013.972-.062 1.334-.294.35-.233.536-.723.826-1.152h2.739c-.012.203-.012.38-.037.552-.361 2.32-2.129 3.864-4.451 3.87-6.13.006-12.259 0-18.394 0h-.543v8.892h.604c6.062 0 12.131 0 18.194-.006.808 0 1.58.141 2.298.52 1.424.754 2.437 2.493 2.274 3.902h-2.84c-.248-1.084-.713-1.458-1.774-1.458-1.364 0-2.727-.006-4.084 0-2.57.013-4.79 1.672-5.568 4.146a5.92 5.92 0 002.183 6.602c1.623 1.164 3.397 1.402 5.224.802-.458-1.163-.959-2.272-1.327-3.417-.38-1.17-.53-2.395-.506-3.65h2.877c.09 6.185 5.182 10.877 10.997 10.411 6.25-.502 9.357-5.953 9.387-9.694-2.347.894-4.772.747-7.203.716.006-.998.006-1.935.006-2.952z"/></mask><path d="M45.034 63.299h-2.141c-.109-.03-.218-.074-.326-.08a12.76 12.76 0 01-4.145-1.176c-1.411-.667-2.648-1.58-3.752-2.676-4.361 1.99-8.457.3-10.599-2.364-1.17-1.458-1.852-3.13-1.979-5.003-.168-2.456.58-4.63 2.202-6.59H13.237V30.596h11.051c-.157-.202-.247-.313-.337-.429-1.11-1.44-1.744-3.074-1.864-4.9-.44-6.595 6.128-11.353 12.137-8.787.332.14.513.11.79-.135 3.42-3.154 7.42-4.324 11.926-3.264 6.039 1.415 10.147 6.804 10.16 13.16 0 .454.108.73.488 1.005 2.389 1.751 4.047 4.06 4.88 6.939.26.894.386 1.825.58 2.737v2.174c-.031.092-.073.184-.08.282-.428 3.858-2.19 6.945-5.223 9.278-.483.367-.646.723-.652 1.323-.036 5.83-3.698 10.9-9.163 12.689-.947.3-1.937.422-2.896.63zm1.858-14.919c.314 0 .585.012.857 0 1.327-.06 2.672.012 3.97-.208 6.243-1.06 10.001-7.839 7.72-13.834-1.52-4-5.29-6.657-9.519-6.7-1.001-.012-2.002 0-3.016 0v-2.952c2.437-.024 4.85-.16 7.185.716.127-4.378-3.91-8.873-8.578-9.596-2.498-.386-4.857.086-6.98 1.488-3.137 2.07-4.675 5.083-4.826 8.837h-2.89c.013-2.535.676-4.85 1.961-7.042-.241-.068-.434-.135-.633-.178-.332-.061-.67-.135-1.008-.153-3.281-.153-6.08 2.45-6.153 5.714-.078 3.386 2.522 6.105 5.852 6.13 1.278.006 2.563.024 3.842-.012.453-.013.972-.062 1.334-.294.35-.233.536-.723.826-1.152h2.739c-.012.203-.012.38-.037.552-.361 2.32-2.129 3.864-4.451 3.87-6.13.006-12.259 0-18.394 0h-.543v8.892h.604c6.062 0 12.131 0 18.194-.006.808 0 1.58.141 2.298.52 1.424.754 2.437 2.493 2.274 3.902h-2.84c-.248-1.084-.713-1.458-1.774-1.458-1.364 0-2.727-.006-4.084 0-2.57.013-4.79 1.672-5.568 4.146a5.92 5.92 0 002.183 6.602c1.623 1.164 3.397 1.402 5.224.802-.458-1.163-.959-2.272-1.327-3.417-.38-1.17-.53-2.395-.506-3.65h2.877c.09 6.185 5.182 10.877 10.997 10.411 6.25-.502 9.357-5.953 9.387-9.694-2.347.894-4.772.747-7.203.716.006-.998.006-1.935.006-2.952z" fill="#fff"/><path d="M45.034 63.299v.6h.065l.062-.014-.127-.586zm-2.141 0l-.163.577.08.023h.083v-.6zm-.326-.08l-.063.597.014.001.015.001.034-.599zm-4.145-1.176l-.256.543.257-.543zm-3.752-2.676l.423-.426-.294-.292-.378.172.25.546zm-10.599-2.364l-.468.376.468-.376zM22.092 52l.6-.04v-.002l-.6.042zm2.202-6.59l.462.383.814-.983h-1.276v.6zm-11.057 0h-.6v.6h.6v-.6zm0-14.814v-.6h-.6v.6h.6zm11.051 0v.6h1.226l-.752-.968-.474.368zm-.337-.429l-.476.367.002.001.474-.368zm-1.864-4.9l.598-.039-.598.04zm12.137-8.787l-.236.552h.001l.235-.552zm.79-.135l.397.45.01-.009-.407-.441zM46.94 13.08l-.137.584.137-.584zM57.1 26.24h.6-.6zm.488 1.005l.355-.484-.003-.002-.352.486zm4.88 6.939l-.576.166.576-.166zm.58 2.737h.6v-.063l-.014-.061-.587.124zm0 2.174l.57.187.03-.09v-.097h-.6zm-.08.282l.597.066.002-.015v-.014l-.598-.037zm-5.223 9.278l.363.477.002-.002-.365-.475zm-.652 1.323l-.6-.006v.002l.6.004zm-9.163 12.69l.18.572.006-.002-.186-.57zM46.892 48.38v-.6h-.6v.6h.6zm.857 0l.027.6-.027-.6zm3.97-.208l-.101-.591.1.591zm7.72-13.834l-.56.213.56-.213zm-9.519-6.7l-.007.6h.001l.006-.6zm-3.016 0h-.6v.6h.6v-.6zm0-2.952l-.006-.6-.594.006v.594h.6zm7.185.716l-.21.562.785.295.025-.84-.6-.017zm-8.578-9.596l.091-.593-.091.593zm-6.98 1.488l.33.501-.33-.5zm-4.826 8.837v.6h.577l.023-.576-.6-.024zm-2.89 0l-.6-.003-.002.603h.602v-.6zm1.961-7.042l.518.303.394-.672-.75-.21-.162.579zm-.633-.178l.126-.587-.009-.002-.008-.001-.11.59zm-1.008-.153l.033-.6h-.005l-.028.6zm-6.153 5.714l.6.014v-.001l-.6-.013zm5.852 6.13l-.005.6h.002l.003-.6zm3.842-.012l-.016-.6.016.6zm1.334-.294l.324.505.008-.006-.332-.5zm.826-1.152v-.6h-.319l-.178.264.497.336zm2.739 0l.599.036.038-.636h-.637v.6zm-.037.552l.593.092.002-.009-.595-.083zm-4.451 3.87v.6h.001l-.002-.6zm-18.937 0v-.6h-.6v.6h.6zm0 8.892h-.6v.6h.6v-.6zm18.798-.006v-.6.6zm2.298.52l.28-.53-.28.53zm2.274 3.902v.6h.535l.061-.531-.596-.07zm-2.84 0l-.586.133.107.467h.478v-.6zm-5.858-1.458l-.003-.6.003.6zm-5.568 4.146l-.573-.18.573.18zm2.183 6.602l-.35.487.35-.487zm5.224.802l.188.57.604-.198-.233-.592-.559.22zm-1.327-3.417l.572-.184-.001-.001-.57.185zm-.506-3.65v-.6h-.589l-.011.589.6.011zm2.877 0l.6-.009-.009-.59h-.59v.6zM44.702 60.31l.048.598-.048-.598zm9.387-9.694l.6.004.007-.878-.82.313.213.56zm-7.203.716l-.6-.004-.004.597.597.007.007-.6zM45.034 62.7h-2.141v1.2h2.141v-1.2zm-1.979.022a2.448 2.448 0 01-.066-.02l-.096-.029a1.358 1.358 0 00-.292-.052l-.068 1.198c-.01 0-.004-.002.034.01a4.208 4.208 0 00.163.049l.325-1.156zm-.425-.099a12.162 12.162 0 01-3.951-1.121l-.513 1.085c1.379.652 2.82 1.07 4.338 1.23l.126-1.194zm-3.951-1.121c-1.342-.635-2.523-1.505-3.586-2.56l-.846.852c1.146 1.137 2.437 2.092 3.919 2.793l.513-1.085zm-4.258-2.68c-4.079 1.862-7.889.286-9.882-2.194l-.935.752c2.29 2.849 6.672 4.653 11.315 2.534l-.498-1.092zm-9.882-2.194c-1.097-1.366-1.73-2.922-1.848-4.668l-1.197.081c.135 2.003.866 3.79 2.11 5.339l.935-.752zm-1.848-4.669c-.157-2.29.534-4.315 2.066-6.165l-.925-.766c-1.713 2.07-2.518 4.393-2.338 7.014l1.197-.082zm1.603-7.148H13.237v1.2h11.057v-1.2zm-10.457.6V30.597h-1.2V45.41h1.2zm-.6-14.214h5.507v-1.2h-5.506v1.2zm5.507 0h5.544v-1.2h-5.544v1.2zm6.018-.968a27.99 27.99 0 00-.198-.252l-.14-.177-.947.736.148.188.19.24.947-.735zm-.336-.427c-1.04-1.348-1.628-2.87-1.74-4.573l-1.198.08c.128 1.946.807 3.695 1.987 5.226l.95-.733zm-1.74-4.573c-.412-6.164 5.72-10.58 11.302-8.197l.471-1.103c-6.433-2.748-13.44 2.352-12.971 9.38l1.197-.08zm11.303-8.196c.208.088.463.166.751.116.285-.048.502-.204.671-.353l-.794-.9c-.108.096-.12.078-.078.07.045-.007.044.015-.08-.038l-.47 1.105zm1.432-.246c3.284-3.028 7.082-4.132 11.382-3.121l.275-1.168c-4.713-1.108-8.914.127-12.47 3.407l.813.882zm11.383-3.121c5.752 1.348 9.683 6.483 9.695 12.578l1.2-.003c-.012-6.618-4.297-12.262-10.622-13.743l-.273 1.168zm9.695 12.576c0 .271.032.552.158.823.13.277.332.489.579.668l.704-.972c-.133-.097-.175-.16-.195-.203-.023-.049-.046-.133-.046-.316h-1.2zm.734 1.489c2.286 1.676 3.864 3.875 4.659 6.621l1.152-.333c-.87-3.01-2.61-5.429-5.101-7.256l-.71.968zm4.659 6.622c.252.869.362 1.72.568 2.694l1.174-.248c-.18-.851-.323-1.862-.59-2.78l-1.152.334zm.555 2.57v2.173h1.2v-2.175h-1.2zm.03 1.987l-.019.053c-.008.022-.02.054-.03.088-.022.068-.05.17-.058.29l1.198.075c-.002.023-.006.03.002.004l.018-.05.03-.086-1.14-.374zm-.105.403c-.41 3.695-2.087 6.634-4.993 8.868l.731.952c3.163-2.432 5.009-5.666 5.455-9.688l-1.193-.132zm-4.99 8.867c-.291.22-.527.47-.682.789-.154.317-.203.653-.207 1.005l1.2.012c.003-.249.037-.39.087-.493.048-.1.136-.212.328-.359l-.727-.955zm-.889 1.796c-.035 5.577-3.534 10.416-8.75 12.123l.373 1.14c5.716-1.87 9.54-7.172 9.577-13.256l-1.2-.007zm-8.745 12.12c-.915.291-1.807.393-2.841.617l.254 1.173c.884-.192 1.971-.335 2.95-.645l-.362-1.144zm-.856-13.115c.276 0 .596.013.884 0l-.054-1.2c-.256.012-.479 0-.83 0v1.2zm.884 0c1.243-.058 2.7.012 4.043-.216l-.201-1.183c-1.252.212-2.485.135-3.897.2l.055 1.199zm4.042-.216c6.631-1.126 10.592-8.304 8.183-14.64l-1.122.427c2.15 5.656-1.405 12.036-7.261 13.03l.2 1.183zm8.183-14.64c-1.607-4.225-5.594-7.04-10.075-7.086l-.012 1.2c3.978.04 7.53 2.54 8.965 6.313L60 34.124zm-10.073-7.086c-1.006-.012-2.02 0-3.024 0v1.2c1.024 0 2.012-.012 3.01 0l.014-1.2zm-2.424.6v-2.952h-1.2v2.951h1.2zm-.594-2.352c2.484-.025 4.763-.149 6.968.678l.422-1.123c-2.464-.925-5.011-.779-7.402-.755l.012 1.2zm7.779.134c.068-2.377-.99-4.739-2.644-6.587-1.656-1.85-3.952-3.234-6.443-3.62L45.42 16.4c2.179.337 4.235 1.561 5.732 3.234 1.5 1.675 2.396 3.75 2.338 5.752l1.2.035zm-9.087-10.207c-2.637-.407-5.148.092-7.402 1.58l.662 1.002c1.993-1.317 4.2-1.76 6.557-1.396l.183-1.186zm-7.401 1.58c-3.314 2.187-4.938 5.386-5.095 9.314l1.199.048c.143-3.58 1.596-6.407 4.556-8.36l-.66-1.002zm-4.496 8.738h-2.89v1.2h2.89v-1.2zm-2.29.603c.012-2.425.645-4.637 1.879-6.742l-1.036-.607c-1.335 2.28-2.03 4.698-2.043 7.343l1.2.006zm1.522-7.623c-.19-.053-.449-.14-.668-.187l-.253 1.173c.18.039.306.088.599.17l.322-1.156zm-.685-.19c-.305-.056-.697-.141-1.084-.162l-.065 1.198c.288.016.572.078.93.144l.219-1.18zm-1.089-.163c-3.616-.168-6.7 2.696-6.78 6.3l1.199.027c.065-2.924 2.578-5.265 5.525-5.128l.056-1.198zm-6.78 6.3c-.087 3.713 2.772 6.717 6.446 6.744l.009-1.2c-2.986-.022-5.327-2.456-5.256-5.516l-1.2-.028zm6.448 6.744c1.27.006 2.57.025 3.863-.013l-.035-1.2c-1.266.037-2.536.02-3.822.013l-.006 1.2zm3.862-.013c.445-.012 1.123-.055 1.641-.389l-.649-1.009c-.206.132-.566.186-1.025.199l.033 1.2zm1.649-.394c.288-.192.478-.467.614-.686.166-.27.233-.416.377-.629l-.994-.672c-.146.216-.317.53-.404.67-.118.191-.196.277-.258.318l.665 1zm.494-1.05h2.739v-1.2h-2.739v1.2zm2.14-.636c-.015.25-.012.362-.032.503l1.189.167c.028-.202.031-.446.04-.599l-1.197-.071zm-.03.494c-.318 2.037-1.84 3.358-3.861 3.363l.003 1.2c2.625-.007 4.637-1.773 5.043-4.378l-1.185-.185zm-3.86 3.363c-6.129.006-12.257 0-18.392 0v1.2c6.134 0 12.264.006 18.393 0l-.001-1.2zm-18.392 0h-.544v1.2h.545v-1.2zm-1.143.6v8.891h1.2v-8.892h-1.2zm.6 9.492h.604v-1.2h-.604v1.2zm.603 0c6.062 0 12.131 0 18.194-.006v-1.2c-6.063.006-12.131.006-18.194.006v1.2zm18.194-.006c.738 0 1.407.128 2.018.451l.56-1.06c-.825-.437-1.7-.59-2.578-.59v1.2zm2.018.451c.6.318 1.132.855 1.494 1.477.364.625.527 1.282.464 1.825l1.192.138c.1-.866-.162-1.783-.62-2.568-.46-.788-1.146-1.497-1.97-1.933l-.56 1.061zm2.554 2.77h-2.84v1.2h2.84v-1.2zm-2.256.467c-.135-.592-.354-1.112-.786-1.466-.436-.357-.983-.458-1.572-.458v1.2c.472 0 .688.086.812.187.127.104.264.313.376.804l1.17-.267zm-2.358-1.924c-1.36 0-2.728-.006-4.087 0l.005 1.2c1.356-.006 2.714 0 4.082 0v-1.2zm-4.087 0c-2.836.014-5.283 1.848-6.138 4.566l1.145.36c.701-2.23 2.695-3.715 4.998-3.726l-.005-1.2zm-6.138 4.567a6.52 6.52 0 002.406 7.268l.7-.974a5.32 5.32 0 01-1.96-5.935l-1.146-.36zm2.407 7.269c1.781 1.277 3.755 1.543 5.76.884l-.374-1.14c-1.65.542-3.223.33-4.687-.72l-.7.976zm6.132.094c-.474-1.2-.954-2.259-1.314-3.38l-1.143.367c.376 1.169.896 2.327 1.34 3.453l1.117-.44zm-1.315-3.382c-.356-1.097-.5-2.253-.478-3.453l-1.2-.023c-.024 1.31.133 2.603.537 3.846l1.141-.37zM30.828 50.5h2.877v-1.2h-2.877v1.2zm2.277-.591c.095 6.514 5.466 11.495 11.645 11l-.096-1.196c-5.451.436-10.263-3.965-10.349-9.822l-1.2.018zm11.645 11c6.622-.532 9.907-6.302 9.939-10.288l-1.2-.01c-.028 3.498-2.957 8.63-8.835 9.102l.096 1.196zm9.125-10.853c-2.214.844-4.502.708-6.981.677l-.015 1.2c2.382.03 4.945.189 7.424-.756l-.428-1.121zm-6.389 1.28c.006-1 .006-1.938.006-2.955h-1.2c0 1.017 0 1.952-.006 2.948l1.2.008z" fill="#fff" mask="url(#a)"/><path d="M62.752 14.021l-2.448-2.485-48.236 48.968 2.449 2.485 48.235-48.967z" fill="#fff"/><path fill-rule="evenodd" clip-rule="evenodd" d="M60.304 10.637l3.333 3.385-49.12 49.866-3.334-3.384 49.12-49.867zm2.448 3.385L14.517 62.99l-2.448-2.486 48.235-48.968 2.448 2.486z" fill="#fff"/><path fill-rule="evenodd" clip-rule="evenodd" d="M38.133 4.456C19.885 4.456 5.091 19.474 5.091 38c0 18.526 14.794 33.544 33.042 33.544S71.175 56.526 71.175 38c0-18.526-14.793-33.544-33.042-33.544zM1.077 38C1.077 17.224 17.667.38 38.133.38 58.598.381 75.189 17.224 75.189 38s-16.59 37.619-37.056 37.619c-20.465 0-37.056-16.843-37.056-37.62z" fill="#fff"/><path fill-rule="evenodd" clip-rule="evenodd" d="M38.133 4.838C20.092 4.838 5.467 19.685 5.467 38c0 18.315 14.625 33.162 32.666 33.162 18.041 0 32.666-14.847 32.666-33.162 0-18.315-14.625-33.162-32.666-33.162zM.702 38c0-20.987 16.758-38 37.43-38 20.674 0 37.432 17.013 37.432 38S58.806 76 38.133 76 .702 58.987.702 38zm4.39 0c0-18.526 14.793-33.544 33.04-33.544 18.25 0 33.043 15.018 33.043 33.544 0 18.526-14.794 33.544-33.042 33.544C19.884 71.544 5.09 56.526 5.09 38zM38.131.381C17.669.381 1.078 17.224 1.078 38s16.59 37.619 37.056 37.619C58.599 75.619 75.19 58.776 75.19 38S58.599.381 38.133.381z" fill="#fff"/></svg>