<svg width="76" height="72" fill="none" xmlns="http://www.w3.org/2000/svg"><mask id="a" maskUnits="userSpaceOnUse" x=".131" y=".66" width="75" height="71" fill="#000"><path fill="#fff" d="M.131.66h75v71h-75z"/><path fill-rule="evenodd" clip-rule="evenodd" d="M41.455 1.799a4.634 4.634 0 00-1 .508c-.244.175-4.736 6.09-9.981 13.143l-9.538 12.824-2.697.037-2.696.037.08-.442c.044-.243.312-2.659.595-5.369.282-2.71.552-5.184.598-5.498.081-.547.128-.59 1.128-1.072 1.01-.486 2.42-1.603 3.012-2.384l.288-.381 4.268.394c2.876.265 4.395.354 4.659.271.825-.257.884-1.408.09-1.727-.184-.074-2.282-.308-4.664-.52-4.808-.427-5.172-.409-5.89.302l-1.18 1.176c-.455.455-1.09.905-1.604 1.137-1.301.587-1.758.947-2.006 1.584-.133.343-.48 2.991-.857 6.55l-.632 5.973h-1.411l.08-.506c.045-.279.51-4.506 1.036-9.394.525-4.889 1.022-9.003 1.103-9.143.222-.38.63-.531 1.422-.528.39.002 4.32.332 8.73.734 7.102.647 8.067.71 8.42.542.71-.336.683-1.403-.041-1.68-.184-.07-2.789-.346-5.788-.612s-6.83-.61-8.512-.763c-1.71-.156-3.346-.24-3.71-.19-1.33.183-2.48 1.243-2.757 2.545-.083.387-.496 3.953-.919 7.925l-.768 7.223-1.858.075c-1.592.066-1.96.125-2.571.413-1.253.59-1.958 1.715-1.976 3.156-.009.653-.032.689-.697 1.08a5.318 5.318 0 00-1.17.988c-.982 1.188-.935.148-.892 19.606l.04 17.61.346.701c.438.888 1.637 1.937 2.601 2.278.719.254 1.482.26 31.833.26h31.096l.769-.318c.911-.378 1.996-1.39 2.447-2.285.31-.614.323-.824.365-5.8l.043-5.164h.547c1.268-.002 2.384-.58 2.776-1.44.16-.349.201-1.63.201-6.12 0-5.392-.014-5.706-.291-6.203-.45-.808-1.07-1.139-2.248-1.2l-.998-.051v-4.888c0-4.093-.038-5.006-.236-5.617-.26-.803-.887-1.718-1.458-2.13-.335-.24-.37-.36-.37-1.266 0-1.197-.447-2.164-1.302-2.812-.606-.46-1.709-.806-2.564-.806h-.57l1.722-2.31c.957-1.284 1.815-2.589 1.932-2.936.36-1.08-.025-2.372-.935-3.138-.23-.194-2.176-1.447-4.324-2.785-2.148-1.338-7.09-4.42-10.98-6.85-3.89-2.429-7.267-4.508-7.503-4.62-.609-.29-1.963-.353-2.633-.124zm1.83 1.984c.891.437 21.782 13.565 22.123 13.902.648.643.551.963-.885 2.91l-3.5 4.741-2.21 2.995-.85.005-.849.006 1.721-2.314c.947-1.273 1.81-2.55 1.918-2.838.229-.608.135-1.076-.482-2.408-.345-.745-.412-1.096-.445-2.334-.033-1.198-.094-1.538-.345-1.91-.217-.322-2.04-1.537-6.28-4.185-3.285-2.053-6.14-3.79-6.343-3.861-.643-.224-1.325-.142-2.514.3-1.013.378-1.345.435-2.73.463-1.862.039-2.388.219-3.026 1.038-.243.312-3.31 4.425-6.814 9.14-3.506 4.714-6.456 8.65-6.556 8.748-.116.113-.453.161-.93.135l-.748-.042 8.98-12.082c4.94-6.645 9.12-12.188 9.29-12.318.347-.266 1.031-.308 1.475-.09zm8.748 10.22l5.6 3.5.088 1.47c.07 1.151.177 1.678.493 2.417.222.52.414 1.039.427 1.154.013.114-.904 1.464-2.04 2.999l-2.063 2.79-1.849.004-1.849.005-.17-.908c-.23-1.235-1.18-2.944-2.187-3.942-1.066-1.055-2.2-1.728-3.716-2.207-3.076-.97-6.763-.174-9.035 1.953-1.272 1.192-2.228 2.88-2.458 4.34l-.109.696-2.698.037c-2.155.03-2.676.002-2.585-.135.063-.094 2.927-3.953 6.364-8.575l6.25-8.403h1.376c1.063 0 1.64-.077 2.527-.337.632-.186 1.245-.394 1.363-.463a.497.497 0 01.442-.01c.126.063 2.749 1.69 5.83 3.615zm-8.406 9.011a6.712 6.712 0 013.084 1.63c.924.846 1.485 1.756 1.768 2.866l.212.832H35.292l.1-.506c.678-3.424 4.562-5.698 8.235-4.822zM10.05 27.01c-.05.232-.092.627-.092.877v.456H6.125v-.483c0-.354.116-.589.431-.878.423-.387.461-.394 2.008-.394h1.577l-.092.422zm55.814-.145c.416.3.826 1.287.6 1.448-.074.054-1.243.078-2.597.055l-2.463-.043.62-.866.621-.865 1.417-.003c1.21-.003 1.474.038 1.802.274zm1.52 3.985c.931.681 1.082 1.099 1.082 2.994v1.653H3.326v-1.694c0-1.196.061-1.8.208-2.058.267-.468.942-1.054 1.413-1.227.242-.088 10.92-.126 31.12-.109l30.751.026.566.415zm1.083 8.967v2.295l-5.564.002c-4.437.002-5.754.043-6.506.206-2.577.556-4.786 2.366-5.76 4.72-.417 1.009-.567 3.073-.3 4.134.658 2.618 2.845 4.745 5.75 5.593.699.204 1.608.245 6.595.296l5.785.06v4.561H41.96c-26.375 0-26.506.001-26.774.272-.344.348-.344.998 0 1.346.268.27.4.272 26.774.272h26.505l-.003 1.721c-.002 1.534-.038 1.78-.334 2.258-.187.302-.59.671-.92.842l-.586.304-30.705.002c-34.196.003-31.286.086-32.122-.917-.38-.455-.4-.556-.445-2.343l-.048-1.867h3.106c2.91 0 3.125-.017 3.4-.27 0 0 .296-.45.296-.675 0-.225-.131-.525-.295-.675-.276-.253-.491-.27-3.39-.27H3.325V37.521h65.14v2.295zm3.501 9.753l.039 5.501-7.186-.003c-4.204-.002-7.45-.059-7.819-.137-2.315-.489-4.172-2.286-4.61-4.46-.595-2.957 1.79-5.933 5.07-6.327.5-.06 3.96-.101 7.689-.092l6.779.017.038 5.501zm-14.703-3.822c-1.863.52-3.247 2.392-3.05 4.131.24 2.144 1.998 3.628 4.295 3.63 3.796.004 5.73-3.95 3.252-6.646-.21-.229-.787-.601-1.283-.828-.747-.342-1.07-.411-1.873-.401-.534.006-1.138.057-1.341.114zm2.123 1.952c1.55.593 1.787 2.582.418 3.515-.57.389-1.755.432-2.357.085-1.498-.86-1.4-2.878.171-3.531.727-.303 1.118-.318 1.768-.07z"/></mask><path fill-rule="evenodd" clip-rule="evenodd" d="M41.455 1.799a4.634 4.634 0 00-1 .508c-.244.175-4.736 6.09-9.981 13.143l-9.538 12.824-2.697.037-2.696.037.08-.442c.044-.243.312-2.659.595-5.369.282-2.71.552-5.184.598-5.498.081-.547.128-.59 1.128-1.072 1.01-.486 2.42-1.603 3.012-2.384l.288-.381 4.268.394c2.876.265 4.395.354 4.659.271.825-.257.884-1.408.09-1.727-.184-.074-2.282-.308-4.664-.52-4.808-.427-5.172-.409-5.89.302l-1.18 1.176c-.455.455-1.09.905-1.604 1.137-1.301.587-1.758.947-2.006 1.584-.133.343-.48 2.991-.857 6.55l-.632 5.973h-1.411l.08-.506c.045-.279.51-4.506 1.036-9.394.525-4.889 1.022-9.003 1.103-9.143.222-.38.63-.531 1.422-.528.39.002 4.32.332 8.73.734 7.102.647 8.067.71 8.42.542.71-.336.683-1.403-.041-1.68-.184-.07-2.789-.346-5.788-.612s-6.83-.61-8.512-.763c-1.71-.156-3.346-.24-3.71-.19-1.33.183-2.48 1.243-2.757 2.545-.083.387-.496 3.953-.919 7.925l-.768 7.223-1.858.075c-1.592.066-1.96.125-2.571.413-1.253.59-1.958 1.715-1.976 3.156-.009.653-.032.689-.697 1.08a5.318 5.318 0 00-1.17.988c-.982 1.188-.935.148-.892 19.606l.04 17.61.346.701c.438.888 1.637 1.937 2.601 2.278.719.254 1.482.26 31.833.26h31.096l.769-.318c.911-.378 1.996-1.39 2.447-2.285.31-.614.323-.824.365-5.8l.043-5.164h.547c1.268-.002 2.384-.58 2.776-1.44.16-.349.201-1.63.201-6.12 0-5.392-.014-5.706-.291-6.203-.45-.808-1.07-1.139-2.248-1.2l-.998-.051v-4.888c0-4.093-.038-5.006-.236-5.617-.26-.803-.887-1.718-1.458-2.13-.335-.24-.37-.36-.37-1.266 0-1.197-.447-2.164-1.302-2.812-.606-.46-1.709-.806-2.564-.806h-.57l1.722-2.31c.957-1.284 1.815-2.589 1.932-2.936.36-1.08-.025-2.372-.935-3.138-.23-.194-2.176-1.447-4.324-2.785-2.148-1.338-7.09-4.42-10.98-6.85-3.89-2.429-7.267-4.508-7.503-4.62-.609-.29-1.963-.353-2.633-.124zm1.83 1.984c.891.437 21.782 13.565 22.123 13.902.648.643.551.963-.885 2.91l-3.5 4.741-2.21 2.995-.85.005-.849.006 1.721-2.314c.947-1.273 1.81-2.55 1.918-2.838.229-.608.135-1.076-.482-2.408-.345-.745-.412-1.096-.445-2.334-.033-1.198-.094-1.538-.345-1.91-.217-.322-2.04-1.537-6.28-4.185-3.285-2.053-6.14-3.79-6.343-3.861-.643-.224-1.325-.142-2.514.3-1.013.378-1.345.435-2.73.463-1.862.039-2.388.219-3.026 1.038-.243.312-3.31 4.425-6.814 9.14-3.506 4.714-6.456 8.65-6.556 8.748-.116.113-.453.161-.93.135l-.748-.042 8.98-12.082c4.94-6.645 9.12-12.188 9.29-12.318.347-.266 1.031-.308 1.475-.09zm8.748 10.22l5.6 3.5.088 1.47c.07 1.151.177 1.678.493 2.417.222.52.414 1.039.427 1.154.013.114-.904 1.464-2.04 2.999l-2.063 2.79-1.849.004-1.849.005-.17-.908c-.23-1.235-1.18-2.944-2.187-3.942-1.066-1.055-2.2-1.728-3.716-2.207-3.076-.97-6.763-.174-9.035 1.953-1.272 1.192-2.228 2.88-2.458 4.34l-.109.696-2.698.037c-2.155.03-2.676.002-2.585-.135.063-.094 2.927-3.953 6.364-8.575l6.25-8.403h1.376c1.063 0 1.64-.077 2.527-.337.632-.186 1.245-.394 1.363-.463a.497.497 0 01.442-.01c.126.063 2.749 1.69 5.83 3.615zm-8.406 9.011a6.712 6.712 0 013.084 1.63c.924.846 1.485 1.756 1.768 2.866l.212.832H35.292l.1-.506c.678-3.424 4.562-5.698 8.235-4.822zM10.05 27.01c-.05.232-.092.627-.092.877v.456H6.125v-.483c0-.354.116-.589.431-.878.423-.387.461-.394 2.008-.394h1.577l-.092.422zm55.814-.145c.416.3.826 1.287.6 1.448-.074.054-1.243.078-2.597.055l-2.463-.043.62-.866.621-.865 1.417-.003c1.21-.003 1.474.038 1.802.274zm1.52 3.985c.931.681 1.082 1.099 1.082 2.994v1.653H3.326v-1.694c0-1.196.061-1.8.208-2.058.267-.468.942-1.054 1.413-1.227.242-.088 10.92-.126 31.12-.109l30.751.026.566.415zm1.083 8.967v2.295l-5.564.002c-4.437.002-5.754.043-6.506.206-2.577.556-4.786 2.366-5.76 4.72-.417 1.009-.567 3.073-.3 4.134.658 2.618 2.845 4.745 5.75 5.593.699.204 1.608.245 6.595.296l5.785.06v4.561H41.96c-26.375 0-26.506.001-26.774.272-.344.348-.344.998 0 1.346.268.27.4.272 26.774.272h26.505l-.003 1.721c-.002 1.534-.038 1.78-.334 2.258-.187.302-.59.671-.92.842l-.586.304-30.705.002c-34.196.003-31.286.086-32.122-.917-.38-.455-.4-.556-.445-2.343l-.048-1.867h3.106c2.91 0 3.125-.017 3.4-.27 0 0 .296-.45.296-.675 0-.225-.131-.525-.295-.675-.276-.253-.491-.27-3.39-.27H3.325V37.521h65.14v2.295zm3.501 9.753l.039 5.501-7.186-.003c-4.204-.002-7.45-.059-7.819-.137-2.315-.489-4.172-2.286-4.61-4.46-.595-2.957 1.79-5.933 5.07-6.327.5-.06 3.96-.101 7.689-.092l6.779.017.038 5.501zm-14.703-3.822c-1.863.52-3.247 2.392-3.05 4.131.24 2.144 1.998 3.628 4.295 3.63 3.796.004 5.73-3.95 3.252-6.646-.21-.229-.787-.601-1.283-.828-.747-.342-1.07-.411-1.873-.401-.534.006-1.138.057-1.341.114zm2.123 1.952c1.55.593 1.787 2.582.418 3.515-.57.389-1.755.432-2.357.085-1.498-.86-1.4-2.878.171-3.531.727-.303 1.118-.318 1.768-.07z" fill="#fff"/><path clip-rule="evenodd" d="M41.455 1.799a4.634 4.634 0 00-1 .508c-.244.175-4.736 6.09-9.981 13.143l-9.538 12.824-2.697.037-2.696.037.08-.442c.044-.243.312-2.659.595-5.369.282-2.71.552-5.184.598-5.498.081-.547.128-.59 1.128-1.072 1.01-.486 2.42-1.603 3.012-2.384l.288-.381 4.268.394c2.876.265 4.395.354 4.659.271.825-.257.884-1.408.09-1.727-.184-.074-2.282-.308-4.664-.52-4.808-.427-5.172-.409-5.89.302l-1.18 1.176c-.455.455-1.09.905-1.604 1.137-1.301.587-1.758.947-2.006 1.584-.133.343-.48 2.991-.857 6.55l-.632 5.973h-1.411l.08-.506c.045-.279.51-4.506 1.036-9.394.525-4.889 1.022-9.003 1.103-9.143.222-.38.63-.531 1.422-.528.39.002 4.32.332 8.73.734 7.102.647 8.067.71 8.42.542.71-.336.683-1.403-.041-1.68-.184-.07-2.789-.346-5.788-.612s-6.83-.61-8.512-.763c-1.71-.156-3.346-.24-3.71-.19-1.33.183-2.48 1.243-2.757 2.545-.083.387-.496 3.953-.919 7.925l-.768 7.223-1.858.075c-1.592.066-1.96.125-2.571.413-1.253.59-1.958 1.715-1.976 3.156-.009.653-.032.689-.697 1.08a5.318 5.318 0 00-1.17.988c-.982 1.188-.935.148-.892 19.606l.04 17.61.346.701c.438.888 1.637 1.937 2.601 2.278.719.254 1.482.26 31.833.26h31.096l.769-.318c.911-.378 1.996-1.39 2.447-2.285.31-.614.323-.824.365-5.8l.043-5.164h.547c1.268-.002 2.384-.58 2.776-1.44.16-.349.201-1.63.201-6.12 0-5.392-.014-5.706-.291-6.203-.45-.808-1.07-1.139-2.248-1.2l-.998-.051v-4.888c0-4.093-.038-5.006-.236-5.617-.26-.803-.887-1.718-1.458-2.13-.335-.24-.37-.36-.37-1.266 0-1.197-.447-2.164-1.302-2.812-.606-.46-1.709-.806-2.564-.806h-.57l1.722-2.31c.957-1.284 1.815-2.589 1.932-2.936.36-1.08-.025-2.372-.935-3.138-.23-.194-2.176-1.447-4.324-2.785-2.148-1.338-7.09-4.42-10.98-6.85-3.89-2.429-7.267-4.508-7.503-4.62-.609-.29-1.963-.353-2.633-.124zm1.83 1.984c.891.437 21.782 13.565 22.123 13.902.648.643.551.963-.885 2.91l-3.5 4.741-2.21 2.995-.85.005-.849.006 1.721-2.314c.947-1.273 1.81-2.55 1.918-2.838.229-.608.135-1.076-.482-2.408-.345-.745-.412-1.096-.445-2.334-.033-1.198-.094-1.538-.345-1.91-.217-.322-2.04-1.537-6.28-4.185-3.285-2.053-6.14-3.79-6.343-3.861-.643-.224-1.325-.142-2.514.3-1.013.378-1.345.435-2.73.463-1.862.039-2.388.219-3.026 1.038-.243.312-3.31 4.425-6.814 9.14-3.506 4.714-6.456 8.65-6.556 8.748-.116.113-.453.161-.93.135l-.748-.042 8.98-12.082c4.94-6.645 9.12-12.188 9.29-12.318.347-.266 1.031-.308 1.475-.09zm8.748 10.22l5.6 3.5.088 1.47c.07 1.151.177 1.678.493 2.417.222.52.414 1.039.427 1.154.013.114-.904 1.464-2.04 2.999l-2.063 2.79-1.849.004-1.849.005-.17-.908c-.23-1.235-1.18-2.944-2.187-3.942-1.066-1.055-2.2-1.728-3.716-2.207-3.076-.97-6.763-.174-9.035 1.953-1.272 1.192-2.228 2.88-2.458 4.34l-.109.696-2.698.037c-2.155.03-2.676.002-2.585-.135.063-.094 2.927-3.953 6.364-8.575l6.25-8.403h1.376c1.063 0 1.64-.077 2.527-.337.632-.186 1.245-.394 1.363-.463a.497.497 0 01.442-.01c.126.063 2.749 1.69 5.83 3.615zm-8.406 9.011a6.712 6.712 0 013.084 1.63c.924.846 1.485 1.756 1.768 2.866l.212.832H35.292l.1-.506c.678-3.424 4.562-5.698 8.235-4.822zM10.05 27.01c-.05.232-.092.627-.092.877v.456H6.125v-.483c0-.354.116-.589.431-.878.423-.387.461-.394 2.008-.394h1.577l-.092.422zm55.814-.145c.416.3.826 1.287.6 1.448-.074.054-1.243.078-2.597.055l-2.463-.043.62-.866.621-.865 1.417-.003c1.21-.003 1.474.038 1.802.274zm1.52 3.985c.931.681 1.082 1.099 1.082 2.994v1.653H3.326v-1.694c0-1.196.061-1.8.208-2.058.267-.468.942-1.054 1.413-1.227.242-.088 10.92-.126 31.12-.109l30.751.026.566.415zm1.083 8.967v2.295l-5.564.002c-4.437.002-5.754.043-6.506.206-2.577.556-4.786 2.366-5.76 4.72-.417 1.009-.567 3.073-.3 4.134.658 2.618 2.845 4.745 5.75 5.593.699.204 1.608.245 6.595.296l5.785.06v4.561H41.96c-26.375 0-26.506.001-26.774.272-.344.348-.344.998 0 1.346.268.27.4.272 26.774.272h26.505l-.003 1.721c-.002 1.534-.038 1.78-.334 2.258-.187.302-.59.671-.92.842l-.586.304-30.705.002c-34.196.003-31.286.086-32.122-.917-.38-.455-.4-.556-.445-2.343l-.048-1.867h3.106c2.91 0 3.125-.017 3.4-.27 0 0 .296-.45.296-.675 0-.225-.131-.525-.295-.675-.276-.253-.491-.27-3.39-.27H3.325V37.521h65.14v2.295zm3.501 9.753l.039 5.501-7.186-.003c-4.204-.002-7.45-.059-7.819-.137-2.315-.489-4.172-2.286-4.61-4.46-.595-2.957 1.79-5.933 5.07-6.327.5-.06 3.96-.101 7.689-.092l6.779.017.038 5.501zm-14.703-3.822c-1.863.52-3.247 2.392-3.05 4.131.24 2.144 1.998 3.628 4.295 3.63 3.796.004 5.73-3.95 3.252-6.646-.21-.229-.787-.601-1.283-.828-.747-.342-1.07-.411-1.873-.401-.534.006-1.138.057-1.341.114zm2.123 1.952c1.55.593 1.787 2.582.418 3.515-.57.389-1.755.432-2.357.085-1.498-.86-1.4-2.878.171-3.531.727-.303 1.118-.318 1.768-.07z" stroke="#fff" stroke-width="1.6" mask="url(#a)"/></svg>