<svg width="81" height="81" viewBox="0 0 81 81" fill="none" xmlns="http://www.w3.org/2000/svg">
<mask id="path-1-outside-1_91_63" maskUnits="userSpaceOnUse" x="0.317169" y="-0.194229" width="80" height="81" fill="black">
<rect fill="white" x="0.317169" y="-0.194229" width="80" height="81"/>
<path fill-rule="evenodd" clip-rule="evenodd" d="M12.8261 1.10631C12.2179 1.48381 11.8632 2.159 11.8632 2.93954C11.8632 3.39159 12.0523 3.83897 12.6395 4.77574C14.0359 7.0036 14.5623 8.54211 14.7235 10.8679L14.8148 12.1851L14.2944 11.9576C14.0083 11.8325 13.078 11.4069 12.2273 11.0118C10.597 10.2546 10.0289 10.1592 9.21411 10.5057C8.22199 10.9278 7.45978 12.3002 7.64873 13.3251C7.70147 13.6119 8.26066 14.588 8.89125 15.4941C10.1562 17.3118 10.9402 18.7985 11.3129 20.0863C11.6602 21.2864 11.6334 21.4051 10.9078 21.8906C9.77178 22.6506 7.39405 25.234 6.32243 26.8726C3.10773 31.7882 1.59585 37.9302 1.82347 45.15C1.94179 48.9024 2.42792 52.1852 3.29561 55.0902L3.59218 56.083L3.08327 57.1132C1.99652 59.313 1.31686 62.4047 1.31717 65.1459C1.31763 68.6409 2.53095 73.156 3.63605 73.7755C4.18103 74.081 4.83531 73.8491 5.1172 73.2506C5.30936 72.8426 5.28628 72.7018 4.8506 71.6203C3.02411 67.0866 3.27589 61.2774 5.4633 57.4804C6.28972 56.0458 8.07187 54.3232 9.41728 53.6586C11.241 52.7576 12.4617 52.6447 15.2645 53.1176L16.2964 53.2915L16.3056 54.0058C16.321 55.2163 16.5436 56.2366 16.8403 56.4576C17.2387 56.754 17.8852 56.7139 18.305 56.3667C18.6422 56.0877 18.6631 55.9767 18.6243 54.6751L18.5829 53.2819L20.1816 53.0284C22.1496 52.7164 22.8259 52.7139 24.0786 53.0146C26.9771 53.71 29.4255 56.2355 30.635 59.7773C31.2657 61.6243 31.4984 63.1309 31.4885 65.3015C31.4674 69.9332 29.7454 73.8658 26.8239 75.9542C25.2243 77.0978 24.1045 77.439 21.9526 77.439C20.6214 77.439 19.9923 77.3675 19.3619 77.144C18.238 76.7458 16.8247 76.7645 15.1499 77.1996C12.9169 77.7797 10.9772 77.5063 8.75199 76.2975C7.93582 75.8542 7.82376 75.8311 7.37907 76.0158C6.79908 76.2566 6.54134 76.8572 6.75169 77.4779C6.86389 77.8089 7.21244 78.0675 8.29154 78.6198C9.05864 79.0124 10.1245 79.4326 10.6601 79.5535C12.1625 79.8925 14.44 79.8297 16.0683 79.4042L17.4455 79.0445L19.0493 79.4475C22.6514 80.3528 25.8985 79.6915 28.6474 77.4926C29.5547 76.7666 29.6734 76.7136 29.9643 76.9044C32.4443 78.5306 34.4041 79.3541 36.6377 79.7081C38.2392 79.9619 41.2932 79.8082 42.8193 79.3969C44.3801 78.9765 46.8139 77.7664 48.1025 76.7702C48.8607 76.1842 49.3268 75.9488 50.0134 75.8055C51.4901 75.497 54.3159 74.5862 56.119 73.8378C60.9443 71.8343 65.0709 68.9672 68.8836 64.9691C74.6691 58.902 78.1139 51.6288 79.3021 42.9715C79.5619 41.0788 79.5637 35.2583 79.3052 33.4015C78.6147 28.4432 77.4417 24.6514 75.2898 20.4204C73.6424 17.182 71.5441 14.1727 69.1774 11.6551C67.4928 9.86308 70.1125 7.56784 47.0246 31.0638L26.9209 51.5229L25.545 51.0368C24.2959 50.5953 24.0073 50.552 22.4112 50.5668C21.4443 50.5757 20.0793 50.6799 19.378 50.7987C18.2278 50.9932 18.0957 50.9901 18.0295 50.7665C17.2269 48.0571 15.4578 45.4541 13.4752 44.0656C12.65 43.4877 12.1266 43.4673 11.6099 43.9932C11.1092 44.5029 11.2016 45.2375 11.8234 45.6919C12.8732 46.459 14.419 48.2338 14.9629 49.2964C15.276 49.9081 15.5321 50.4784 15.5321 50.5639C15.5321 50.6638 15.3274 50.6708 14.9588 50.5838C14.0807 50.3762 12.0607 50.4205 10.8695 50.6734C9.54034 50.9558 7.31914 52.0642 6.21145 52.9979C5.60623 53.5082 5.34483 53.6474 5.26503 53.5022C5.08785 53.1801 4.56076 50.341 4.36447 48.6513C4.10995 46.4598 4.14893 42.0186 4.44244 39.7815C5.23094 33.7728 7.31501 28.8976 10.5997 25.3781C12.7277 23.0981 15.2829 21.5596 18.2522 20.7704C19.4033 20.4646 20.2593 20.3575 22.0698 20.2934C24.7279 20.1991 26.0561 20.363 28.1438 21.0422C32.784 22.552 36.5805 25.9506 38.7122 30.5027C39.1783 31.4979 39.6118 32.4173 39.6758 32.5457C39.7397 32.674 39.9651 32.8791 40.1765 33.0013C40.6875 33.2968 41.4242 33.001 41.6677 32.4024C41.8131 32.0452 41.7807 31.8087 41.4721 30.9742C40.25 27.6693 37.922 24.4064 35.2674 22.2779C34.5864 21.732 34.0293 21.2056 34.0293 21.1084C34.0293 20.6921 34.5624 19.1603 35.0578 18.1521C35.3524 17.5528 36.042 16.4354 36.5903 15.6689C37.1387 14.9023 37.687 14.0322 37.8089 13.7351C38.433 12.2145 37.067 10.2868 35.3718 10.2963C35.0885 10.2979 34.0048 10.7023 32.8828 11.2251L30.8955 12.151L30.8456 11.6633C30.7753 10.9737 31.0655 8.92864 31.362 8.02346C31.6896 7.02414 32.3055 5.78658 33.0905 4.55072C34.0342 3.06496 33.9434 1.92699 32.8198 1.1561C31.9825 0.581746 31.3431 0.680091 29.2345 1.7068C28.2117 2.20475 26.9676 2.87745 26.4697 3.20159C25.3075 3.95847 23.9229 5.30465 23.3151 6.26881C23.0526 6.68507 22.8178 7.02569 22.7934 7.02569C22.7689 7.02569 22.5341 6.68507 22.2716 6.26881C21.6667 5.30917 20.2808 3.95941 19.1325 3.2117C18.6433 2.89317 17.4095 2.22078 16.3907 1.7177C14.3434 0.706389 13.6593 0.58906 12.8261 1.10631ZM16.4493 4.36928C18.4534 5.43568 20.2475 7.13633 20.9271 8.61385C21.3575 9.54922 21.6469 10.7939 21.6469 11.7088C21.6469 12.4502 22.1798 13.0945 22.7934 13.0945C23.3673 13.0945 23.9399 12.4481 23.9399 11.8001C23.9399 9.3712 25.2445 7.04359 27.5323 5.39039C28.4662 4.71551 30.9719 3.36591 30.9719 3.53755C30.9719 3.58952 30.843 3.81796 30.6856 4.04515C29.2911 6.05625 28.5361 9.17591 28.5286 12.9568C28.5255 14.4995 28.8232 15.1174 29.5692 15.1174C29.7945 15.1174 31.1824 14.5572 32.6535 13.8725C34.1245 13.1878 35.4143 12.6276 35.5195 12.6276C35.8605 12.6276 35.7277 12.9094 34.7333 14.2975C33.5689 15.9225 32.8089 17.3183 32.3381 18.6964C32.1481 19.2527 31.9426 19.7664 31.8818 19.838C31.8209 19.9095 31.2989 19.7588 30.7218 19.5029C28.2334 18.3997 25.826 17.9199 22.772 17.919C19.9255 17.9181 17.5701 18.4056 14.9163 19.5448L13.7112 20.0622L13.3798 19.0293C12.9185 17.5917 12.1598 16.1567 10.9266 14.3895C10.3004 13.4921 9.92893 12.8226 10.011 12.7391C10.142 12.6057 12.6295 13.6421 14.6486 14.6714C15.7728 15.2445 16.3236 15.2492 16.763 14.6895C17.086 14.2779 17.0952 14.1727 17.0028 11.9274C16.8582 8.40922 16.3502 6.37556 15.1268 4.41628C14.8452 3.96517 14.6148 3.56603 14.6148 3.52899C14.6148 3.45321 15.4248 3.82418 16.4493 4.36928ZM68.512 14.3782C72.814 19.2141 75.8661 25.966 76.9354 33.0125C77.2668 35.1966 77.3107 40.7623 77.0132 42.8937C75.931 50.6488 72.6373 57.6237 67.4413 63.1636C64.4814 66.3192 61.3731 68.653 57.5712 70.5743C55.5265 71.6077 52.4813 72.8486 51.9903 72.8486C51.8512 72.8486 51.9996 72.4161 52.4411 71.5352C52.8032 70.8129 53.2267 69.7899 53.382 69.2619C53.5911 68.5509 53.7558 68.2666 54.0166 68.1656C54.2102 68.0906 55.1125 67.6501 56.0214 67.1864C59.2452 65.5422 61.5599 63.829 64.2309 61.11C68.0653 57.207 70.4756 53.172 72.1379 47.8732C72.8012 45.7588 73.0673 44.4655 72.9427 43.9604C72.8165 43.4485 72.0416 43.1077 71.4671 43.3115C70.9638 43.49 70.9383 43.5456 70.4088 45.6169C68.5438 52.9112 64.2461 59.0966 58.1699 63.2314C56.9671 64.0499 54.3922 65.5377 54.1847 65.534C54.1555 65.5333 54.1168 64.8157 54.0988 63.939C53.9854 58.4388 50.581 53.1084 45.58 50.6004C43.1691 49.3912 41.942 49.1181 38.9211 49.1181C36.7579 49.1181 36.2138 49.1694 35.0994 49.4791C33.5705 49.9041 31.5606 50.8318 30.4573 51.622C30.0256 51.9312 37.2698 44.4434 46.5554 34.9825C55.8411 25.5216 63.4919 17.8146 63.5573 17.8557C63.7521 17.9783 65.4105 20.0981 66.1627 21.1862C67.6989 23.408 69.2792 26.7794 70.0952 29.5752C70.6965 31.6357 71.1569 34.5078 71.2788 36.9581C71.3702 38.7953 71.4136 39.0254 71.7299 39.3474C72.1928 39.8186 72.7775 39.8 73.27 39.2987L73.6681 38.8935L73.5678 36.8789C73.261 30.7087 71.5029 25.1387 68.3437 20.3288C67.3658 18.8399 65.7753 16.7712 65.2993 16.3691C65.0684 16.1741 65.1652 16.0297 66.3108 14.8574C67.0074 14.1445 67.6243 13.5613 67.6813 13.5613C67.7384 13.5613 68.1122 13.9288 68.512 14.3782ZM60.8104 28.7208C60.0274 29.0035 59.3236 29.2992 59.2462 29.3779C59.1689 29.4567 59.0623 29.7417 59.0093 30.0116C58.9315 30.4077 58.9883 30.5789 59.3052 30.9015C59.5209 31.1211 59.8553 31.3008 60.0479 31.3008C60.6251 31.3008 62.8196 30.5072 63.1892 30.1647C63.6492 29.7386 63.6357 29.0569 63.1579 28.5706C62.6832 28.0873 62.5395 28.0965 60.8104 28.7208ZM19.5408 29.8314C19.2922 30.0085 19.2009 30.2305 19.2009 30.6577C19.2009 31.193 19.333 31.3741 20.7839 32.8273C22.0283 34.0739 22.4581 34.413 22.7934 34.413C23.1286 34.413 23.5585 34.0739 24.8029 32.8273C26.2537 31.3741 26.3858 31.193 26.3858 30.6577C26.3858 29.9812 25.9751 29.5891 25.2668 29.5891C24.9339 29.5891 24.5804 29.8318 23.8084 30.5904L22.7894 31.5918L21.7763 30.5904C20.6874 29.5142 20.2119 29.3527 19.5408 29.8314ZM29.7601 29.9991C29.1687 30.7644 29.3951 31.2259 31.2576 33.0537C33.1456 34.9063 33.1465 34.9063 35.2061 32.8099C36.9444 31.0403 37.1307 30.6004 36.4272 29.9274C35.7914 29.3196 35.2818 29.4713 34.189 30.5935L33.211 31.598L32.1651 30.5935C31.2998 29.7627 31.0289 29.5891 30.598 29.5891C30.217 29.5891 29.9916 29.6994 29.7601 29.9991ZM60.5508 37.1234C60.0681 37.6148 60.0526 38.2923 60.514 38.7333C60.7966 39.0033 61.1323 39.0811 62.3976 39.1698C64.1234 39.2906 64.4576 39.1925 64.7472 38.4808C64.901 38.1026 64.8909 37.9411 64.689 37.5434C64.4103 36.9949 64.2827 36.956 62.347 36.8288C60.9842 36.7392 60.9176 36.7501 60.5508 37.1234ZM14.4216 37.0972C14.0037 37.4203 13.8583 38.0261 14.0745 38.5433C14.1802 38.7963 14.8931 39.6163 15.6585 40.3651C17.5561 42.2216 17.5616 42.2213 19.6187 40.1344C20.9625 38.7711 21.1882 38.4699 21.1882 38.0398C21.1882 37.4153 20.6861 36.9027 20.0744 36.9027C19.7355 36.9027 19.3882 37.1399 18.6128 37.9007L17.5958 38.8986L16.5626 37.9007C15.4894 36.8643 14.9735 36.6707 14.4216 37.0972ZM24.6209 37.2848C23.9286 37.9894 24.0831 38.3549 25.8205 40.1235C27.2 41.5278 27.4599 41.7266 27.9145 41.7266C28.3691 41.7266 28.629 41.5278 30.0085 40.1235C31.7459 38.3549 31.9004 37.9894 31.2081 37.2848C30.5851 36.6505 30.153 36.7768 28.9698 37.9397L27.9145 38.9767L26.8593 37.9397C25.676 36.7768 25.2439 36.6505 24.6209 37.2848ZM59.1481 44.5287C58.5291 44.7825 58.2879 45.7241 58.7003 46.2768C58.9133 46.5625 61.5029 47.7954 61.8898 47.7954C62.3596 47.7954 62.9217 47.1697 62.9217 46.6469C62.9217 45.9096 62.6896 45.6947 61.143 44.9996C59.6374 44.323 59.6452 44.3248 59.1481 44.5287ZM54.5427 51.2249C54.3295 51.427 54.2081 51.7278 54.2081 52.0538C54.2081 52.488 54.3905 52.746 55.4135 53.7595C56.7552 55.0885 57.1635 55.227 57.8074 54.5714C58.4631 53.9042 58.3217 53.4822 56.9876 52.1242C55.6769 50.79 55.19 50.611 54.5427 51.2249ZM41.9507 51.6869C46.6258 52.8278 50.2002 56.4193 51.4737 61.2556C51.9285 62.9827 51.9288 65.8712 51.4743 67.6356C50.5833 71.0955 48.2581 74.1705 45.2143 75.9142C41.9536 77.7822 37.5627 78.0361 34.0721 76.5584C33.4651 76.3014 32.5602 75.8227 32.0614 75.4945L31.1544 74.8978L31.986 73.2119C33.1871 70.7768 33.584 69.0663 33.6837 65.8939C33.7463 63.8979 33.7069 63.0568 33.4939 61.848C33.0418 59.281 32.1814 57.0259 31.022 55.3689C30.3997 54.4793 30.3971 54.4848 31.9258 53.4503C33.1006 52.6553 34.8256 51.9174 36.2438 51.6029C37.695 51.2814 40.455 51.322 41.9507 51.6869ZM40.7556 55.4203C40.3003 55.8837 40.3479 56.7165 40.8526 57.1206C41.3704 57.5353 41.7157 57.5282 42.1915 57.0931C42.9991 56.3544 42.5776 55.1091 41.5199 55.1091C41.2651 55.1091 40.9254 55.2474 40.7556 55.4203Z"/>
</mask>
<path fill-rule="evenodd" clip-rule="evenodd" d="M12.8261 1.10631C12.2179 1.48381 11.8632 2.159 11.8632 2.93954C11.8632 3.39159 12.0523 3.83897 12.6395 4.77574C14.0359 7.0036 14.5623 8.54211 14.7235 10.8679L14.8148 12.1851L14.2944 11.9576C14.0083 11.8325 13.078 11.4069 12.2273 11.0118C10.597 10.2546 10.0289 10.1592 9.21411 10.5057C8.22199 10.9278 7.45978 12.3002 7.64873 13.3251C7.70147 13.6119 8.26066 14.588 8.89125 15.4941C10.1562 17.3118 10.9402 18.7985 11.3129 20.0863C11.6602 21.2864 11.6334 21.4051 10.9078 21.8906C9.77178 22.6506 7.39405 25.234 6.32243 26.8726C3.10773 31.7882 1.59585 37.9302 1.82347 45.15C1.94179 48.9024 2.42792 52.1852 3.29561 55.0902L3.59218 56.083L3.08327 57.1132C1.99652 59.313 1.31686 62.4047 1.31717 65.1459C1.31763 68.6409 2.53095 73.156 3.63605 73.7755C4.18103 74.081 4.83531 73.8491 5.1172 73.2506C5.30936 72.8426 5.28628 72.7018 4.8506 71.6203C3.02411 67.0866 3.27589 61.2774 5.4633 57.4804C6.28972 56.0458 8.07187 54.3232 9.41728 53.6586C11.241 52.7576 12.4617 52.6447 15.2645 53.1176L16.2964 53.2915L16.3056 54.0058C16.321 55.2163 16.5436 56.2366 16.8403 56.4576C17.2387 56.754 17.8852 56.7139 18.305 56.3667C18.6422 56.0877 18.6631 55.9767 18.6243 54.6751L18.5829 53.2819L20.1816 53.0284C22.1496 52.7164 22.8259 52.7139 24.0786 53.0146C26.9771 53.71 29.4255 56.2355 30.635 59.7773C31.2657 61.6243 31.4984 63.1309 31.4885 65.3015C31.4674 69.9332 29.7454 73.8658 26.8239 75.9542C25.2243 77.0978 24.1045 77.439 21.9526 77.439C20.6214 77.439 19.9923 77.3675 19.3619 77.144C18.238 76.7458 16.8247 76.7645 15.1499 77.1996C12.9169 77.7797 10.9772 77.5063 8.75199 76.2975C7.93582 75.8542 7.82376 75.8311 7.37907 76.0158C6.79908 76.2566 6.54134 76.8572 6.75169 77.4779C6.86389 77.8089 7.21244 78.0675 8.29154 78.6198C9.05864 79.0124 10.1245 79.4326 10.6601 79.5535C12.1625 79.8925 14.44 79.8297 16.0683 79.4042L17.4455 79.0445L19.0493 79.4475C22.6514 80.3528 25.8985 79.6915 28.6474 77.4926C29.5547 76.7666 29.6734 76.7136 29.9643 76.9044C32.4443 78.5306 34.4041 79.3541 36.6377 79.7081C38.2392 79.9619 41.2932 79.8082 42.8193 79.3969C44.3801 78.9765 46.8139 77.7664 48.1025 76.7702C48.8607 76.1842 49.3268 75.9488 50.0134 75.8055C51.4901 75.497 54.3159 74.5862 56.119 73.8378C60.9443 71.8343 65.0709 68.9672 68.8836 64.9691C74.6691 58.902 78.1139 51.6288 79.3021 42.9715C79.5619 41.0788 79.5637 35.2583 79.3052 33.4015C78.6147 28.4432 77.4417 24.6514 75.2898 20.4204C73.6424 17.182 71.5441 14.1727 69.1774 11.6551C67.4928 9.86308 70.1125 7.56784 47.0246 31.0638L26.9209 51.5229L25.545 51.0368C24.2959 50.5953 24.0073 50.552 22.4112 50.5668C21.4443 50.5757 20.0793 50.6799 19.378 50.7987C18.2278 50.9932 18.0957 50.9901 18.0295 50.7665C17.2269 48.0571 15.4578 45.4541 13.4752 44.0656C12.65 43.4877 12.1266 43.4673 11.6099 43.9932C11.1092 44.5029 11.2016 45.2375 11.8234 45.6919C12.8732 46.459 14.419 48.2338 14.9629 49.2964C15.276 49.9081 15.5321 50.4784 15.5321 50.5639C15.5321 50.6638 15.3274 50.6708 14.9588 50.5838C14.0807 50.3762 12.0607 50.4205 10.8695 50.6734C9.54034 50.9558 7.31914 52.0642 6.21145 52.9979C5.60623 53.5082 5.34483 53.6474 5.26503 53.5022C5.08785 53.1801 4.56076 50.341 4.36447 48.6513C4.10995 46.4598 4.14893 42.0186 4.44244 39.7815C5.23094 33.7728 7.31501 28.8976 10.5997 25.3781C12.7277 23.0981 15.2829 21.5596 18.2522 20.7704C19.4033 20.4646 20.2593 20.3575 22.0698 20.2934C24.7279 20.1991 26.0561 20.363 28.1438 21.0422C32.784 22.552 36.5805 25.9506 38.7122 30.5027C39.1783 31.4979 39.6118 32.4173 39.6758 32.5457C39.7397 32.674 39.9651 32.8791 40.1765 33.0013C40.6875 33.2968 41.4242 33.001 41.6677 32.4024C41.8131 32.0452 41.7807 31.8087 41.4721 30.9742C40.25 27.6693 37.922 24.4064 35.2674 22.2779C34.5864 21.732 34.0293 21.2056 34.0293 21.1084C34.0293 20.6921 34.5624 19.1603 35.0578 18.1521C35.3524 17.5528 36.042 16.4354 36.5903 15.6689C37.1387 14.9023 37.687 14.0322 37.8089 13.7351C38.433 12.2145 37.067 10.2868 35.3718 10.2963C35.0885 10.2979 34.0048 10.7023 32.8828 11.2251L30.8955 12.151L30.8456 11.6633C30.7753 10.9737 31.0655 8.92864 31.362 8.02346C31.6896 7.02414 32.3055 5.78658 33.0905 4.55072C34.0342 3.06496 33.9434 1.92699 32.8198 1.1561C31.9825 0.581746 31.3431 0.680091 29.2345 1.7068C28.2117 2.20475 26.9676 2.87745 26.4697 3.20159C25.3075 3.95847 23.9229 5.30465 23.3151 6.26881C23.0526 6.68507 22.8178 7.02569 22.7934 7.02569C22.7689 7.02569 22.5341 6.68507 22.2716 6.26881C21.6667 5.30917 20.2808 3.95941 19.1325 3.2117C18.6433 2.89317 17.4095 2.22078 16.3907 1.7177C14.3434 0.706389 13.6593 0.58906 12.8261 1.10631ZM16.4493 4.36928C18.4534 5.43568 20.2475 7.13633 20.9271 8.61385C21.3575 9.54922 21.6469 10.7939 21.6469 11.7088C21.6469 12.4502 22.1798 13.0945 22.7934 13.0945C23.3673 13.0945 23.9399 12.4481 23.9399 11.8001C23.9399 9.3712 25.2445 7.04359 27.5323 5.39039C28.4662 4.71551 30.9719 3.36591 30.9719 3.53755C30.9719 3.58952 30.843 3.81796 30.6856 4.04515C29.2911 6.05625 28.5361 9.17591 28.5286 12.9568C28.5255 14.4995 28.8232 15.1174 29.5692 15.1174C29.7945 15.1174 31.1824 14.5572 32.6535 13.8725C34.1245 13.1878 35.4143 12.6276 35.5195 12.6276C35.8605 12.6276 35.7277 12.9094 34.7333 14.2975C33.5689 15.9225 32.8089 17.3183 32.3381 18.6964C32.1481 19.2527 31.9426 19.7664 31.8818 19.838C31.8209 19.9095 31.2989 19.7588 30.7218 19.5029C28.2334 18.3997 25.826 17.9199 22.772 17.919C19.9255 17.9181 17.5701 18.4056 14.9163 19.5448L13.7112 20.0622L13.3798 19.0293C12.9185 17.5917 12.1598 16.1567 10.9266 14.3895C10.3004 13.4921 9.92893 12.8226 10.011 12.7391C10.142 12.6057 12.6295 13.6421 14.6486 14.6714C15.7728 15.2445 16.3236 15.2492 16.763 14.6895C17.086 14.2779 17.0952 14.1727 17.0028 11.9274C16.8582 8.40922 16.3502 6.37556 15.1268 4.41628C14.8452 3.96517 14.6148 3.56603 14.6148 3.52899C14.6148 3.45321 15.4248 3.82418 16.4493 4.36928ZM68.512 14.3782C72.814 19.2141 75.8661 25.966 76.9354 33.0125C77.2668 35.1966 77.3107 40.7623 77.0132 42.8937C75.931 50.6488 72.6373 57.6237 67.4413 63.1636C64.4814 66.3192 61.3731 68.653 57.5712 70.5743C55.5265 71.6077 52.4813 72.8486 51.9903 72.8486C51.8512 72.8486 51.9996 72.4161 52.4411 71.5352C52.8032 70.8129 53.2267 69.7899 53.382 69.2619C53.5911 68.5509 53.7558 68.2666 54.0166 68.1656C54.2102 68.0906 55.1125 67.6501 56.0214 67.1864C59.2452 65.5422 61.5599 63.829 64.2309 61.11C68.0653 57.207 70.4756 53.172 72.1379 47.8732C72.8012 45.7588 73.0673 44.4655 72.9427 43.9604C72.8165 43.4485 72.0416 43.1077 71.4671 43.3115C70.9638 43.49 70.9383 43.5456 70.4088 45.6169C68.5438 52.9112 64.2461 59.0966 58.1699 63.2314C56.9671 64.0499 54.3922 65.5377 54.1847 65.534C54.1555 65.5333 54.1168 64.8157 54.0988 63.939C53.9854 58.4388 50.581 53.1084 45.58 50.6004C43.1691 49.3912 41.942 49.1181 38.9211 49.1181C36.7579 49.1181 36.2138 49.1694 35.0994 49.4791C33.5705 49.9041 31.5606 50.8318 30.4573 51.622C30.0256 51.9312 37.2698 44.4434 46.5554 34.9825C55.8411 25.5216 63.4919 17.8146 63.5573 17.8557C63.7521 17.9783 65.4105 20.0981 66.1627 21.1862C67.6989 23.408 69.2792 26.7794 70.0952 29.5752C70.6965 31.6357 71.1569 34.5078 71.2788 36.9581C71.3702 38.7953 71.4136 39.0254 71.7299 39.3474C72.1928 39.8186 72.7775 39.8 73.27 39.2987L73.6681 38.8935L73.5678 36.8789C73.261 30.7087 71.5029 25.1387 68.3437 20.3288C67.3658 18.8399 65.7753 16.7712 65.2993 16.3691C65.0684 16.1741 65.1652 16.0297 66.3108 14.8574C67.0074 14.1445 67.6243 13.5613 67.6813 13.5613C67.7384 13.5613 68.1122 13.9288 68.512 14.3782ZM60.8104 28.7208C60.0274 29.0035 59.3236 29.2992 59.2462 29.3779C59.1689 29.4567 59.0623 29.7417 59.0093 30.0116C58.9315 30.4077 58.9883 30.5789 59.3052 30.9015C59.5209 31.1211 59.8553 31.3008 60.0479 31.3008C60.6251 31.3008 62.8196 30.5072 63.1892 30.1647C63.6492 29.7386 63.6357 29.0569 63.1579 28.5706C62.6832 28.0873 62.5395 28.0965 60.8104 28.7208ZM19.5408 29.8314C19.2922 30.0085 19.2009 30.2305 19.2009 30.6577C19.2009 31.193 19.333 31.3741 20.7839 32.8273C22.0283 34.0739 22.4581 34.413 22.7934 34.413C23.1286 34.413 23.5585 34.0739 24.8029 32.8273C26.2537 31.3741 26.3858 31.193 26.3858 30.6577C26.3858 29.9812 25.9751 29.5891 25.2668 29.5891C24.9339 29.5891 24.5804 29.8318 23.8084 30.5904L22.7894 31.5918L21.7763 30.5904C20.6874 29.5142 20.2119 29.3527 19.5408 29.8314ZM29.7601 29.9991C29.1687 30.7644 29.3951 31.2259 31.2576 33.0537C33.1456 34.9063 33.1465 34.9063 35.2061 32.8099C36.9444 31.0403 37.1307 30.6004 36.4272 29.9274C35.7914 29.3196 35.2818 29.4713 34.189 30.5935L33.211 31.598L32.1651 30.5935C31.2998 29.7627 31.0289 29.5891 30.598 29.5891C30.217 29.5891 29.9916 29.6994 29.7601 29.9991ZM60.5508 37.1234C60.0681 37.6148 60.0526 38.2923 60.514 38.7333C60.7966 39.0033 61.1323 39.0811 62.3976 39.1698C64.1234 39.2906 64.4576 39.1925 64.7472 38.4808C64.901 38.1026 64.8909 37.9411 64.689 37.5434C64.4103 36.9949 64.2827 36.956 62.347 36.8288C60.9842 36.7392 60.9176 36.7501 60.5508 37.1234ZM14.4216 37.0972C14.0037 37.4203 13.8583 38.0261 14.0745 38.5433C14.1802 38.7963 14.8931 39.6163 15.6585 40.3651C17.5561 42.2216 17.5616 42.2213 19.6187 40.1344C20.9625 38.7711 21.1882 38.4699 21.1882 38.0398C21.1882 37.4153 20.6861 36.9027 20.0744 36.9027C19.7355 36.9027 19.3882 37.1399 18.6128 37.9007L17.5958 38.8986L16.5626 37.9007C15.4894 36.8643 14.9735 36.6707 14.4216 37.0972ZM24.6209 37.2848C23.9286 37.9894 24.0831 38.3549 25.8205 40.1235C27.2 41.5278 27.4599 41.7266 27.9145 41.7266C28.3691 41.7266 28.629 41.5278 30.0085 40.1235C31.7459 38.3549 31.9004 37.9894 31.2081 37.2848C30.5851 36.6505 30.153 36.7768 28.9698 37.9397L27.9145 38.9767L26.8593 37.9397C25.676 36.7768 25.2439 36.6505 24.6209 37.2848ZM59.1481 44.5287C58.5291 44.7825 58.2879 45.7241 58.7003 46.2768C58.9133 46.5625 61.5029 47.7954 61.8898 47.7954C62.3596 47.7954 62.9217 47.1697 62.9217 46.6469C62.9217 45.9096 62.6896 45.6947 61.143 44.9996C59.6374 44.323 59.6452 44.3248 59.1481 44.5287ZM54.5427 51.2249C54.3295 51.427 54.2081 51.7278 54.2081 52.0538C54.2081 52.488 54.3905 52.746 55.4135 53.7595C56.7552 55.0885 57.1635 55.227 57.8074 54.5714C58.4631 53.9042 58.3217 53.4822 56.9876 52.1242C55.6769 50.79 55.19 50.611 54.5427 51.2249ZM41.9507 51.6869C46.6258 52.8278 50.2002 56.4193 51.4737 61.2556C51.9285 62.9827 51.9288 65.8712 51.4743 67.6356C50.5833 71.0955 48.2581 74.1705 45.2143 75.9142C41.9536 77.7822 37.5627 78.0361 34.0721 76.5584C33.4651 76.3014 32.5602 75.8227 32.0614 75.4945L31.1544 74.8978L31.986 73.2119C33.1871 70.7768 33.584 69.0663 33.6837 65.8939C33.7463 63.8979 33.7069 63.0568 33.4939 61.848C33.0418 59.281 32.1814 57.0259 31.022 55.3689C30.3997 54.4793 30.3971 54.4848 31.9258 53.4503C33.1006 52.6553 34.8256 51.9174 36.2438 51.6029C37.695 51.2814 40.455 51.322 41.9507 51.6869ZM40.7556 55.4203C40.3003 55.8837 40.3479 56.7165 40.8526 57.1206C41.3704 57.5353 41.7157 57.5282 42.1915 57.0931C42.9991 56.3544 42.5776 55.1091 41.5199 55.1091C41.2651 55.1091 40.9254 55.2474 40.7556 55.4203Z" fill="white"/>
<path fill-rule="evenodd" clip-rule="evenodd" d="M12.8261 1.10631C12.2179 1.48381 11.8632 2.159 11.8632 2.93954C11.8632 3.39159 12.0523 3.83897 12.6395 4.77574C14.0359 7.0036 14.5623 8.54211 14.7235 10.8679L14.8148 12.1851L14.2944 11.9576C14.0083 11.8325 13.078 11.4069 12.2273 11.0118C10.597 10.2546 10.0289 10.1592 9.21411 10.5057C8.22199 10.9278 7.45978 12.3002 7.64873 13.3251C7.70147 13.6119 8.26066 14.588 8.89125 15.4941C10.1562 17.3118 10.9402 18.7985 11.3129 20.0863C11.6602 21.2864 11.6334 21.4051 10.9078 21.8906C9.77178 22.6506 7.39405 25.234 6.32243 26.8726C3.10773 31.7882 1.59585 37.9302 1.82347 45.15C1.94179 48.9024 2.42792 52.1852 3.29561 55.0902L3.59218 56.083L3.08327 57.1132C1.99652 59.313 1.31686 62.4047 1.31717 65.1459C1.31763 68.6409 2.53095 73.156 3.63605 73.7755C4.18103 74.081 4.83531 73.8491 5.1172 73.2506C5.30936 72.8426 5.28628 72.7018 4.8506 71.6203C3.02411 67.0866 3.27589 61.2774 5.4633 57.4804C6.28972 56.0458 8.07187 54.3232 9.41728 53.6586C11.241 52.7576 12.4617 52.6447 15.2645 53.1176L16.2964 53.2915L16.3056 54.0058C16.321 55.2163 16.5436 56.2366 16.8403 56.4576C17.2387 56.754 17.8852 56.7139 18.305 56.3667C18.6422 56.0877 18.6631 55.9767 18.6243 54.6751L18.5829 53.2819L20.1816 53.0284C22.1496 52.7164 22.8259 52.7139 24.0786 53.0146C26.9771 53.71 29.4255 56.2355 30.635 59.7773C31.2657 61.6243 31.4984 63.1309 31.4885 65.3015C31.4674 69.9332 29.7454 73.8658 26.8239 75.9542C25.2243 77.0978 24.1045 77.439 21.9526 77.439C20.6214 77.439 19.9923 77.3675 19.3619 77.144C18.238 76.7458 16.8247 76.7645 15.1499 77.1996C12.9169 77.7797 10.9772 77.5063 8.75199 76.2975C7.93582 75.8542 7.82376 75.8311 7.37907 76.0158C6.79908 76.2566 6.54134 76.8572 6.75169 77.4779C6.86389 77.8089 7.21244 78.0675 8.29154 78.6198C9.05864 79.0124 10.1245 79.4326 10.6601 79.5535C12.1625 79.8925 14.44 79.8297 16.0683 79.4042L17.4455 79.0445L19.0493 79.4475C22.6514 80.3528 25.8985 79.6915 28.6474 77.4926C29.5547 76.7666 29.6734 76.7136 29.9643 76.9044C32.4443 78.5306 34.4041 79.3541 36.6377 79.7081C38.2392 79.9619 41.2932 79.8082 42.8193 79.3969C44.3801 78.9765 46.8139 77.7664 48.1025 76.7702C48.8607 76.1842 49.3268 75.9488 50.0134 75.8055C51.4901 75.497 54.3159 74.5862 56.119 73.8378C60.9443 71.8343 65.0709 68.9672 68.8836 64.9691C74.6691 58.902 78.1139 51.6288 79.3021 42.9715C79.5619 41.0788 79.5637 35.2583 79.3052 33.4015C78.6147 28.4432 77.4417 24.6514 75.2898 20.4204C73.6424 17.182 71.5441 14.1727 69.1774 11.6551C67.4928 9.86308 70.1125 7.56784 47.0246 31.0638L26.9209 51.5229L25.545 51.0368C24.2959 50.5953 24.0073 50.552 22.4112 50.5668C21.4443 50.5757 20.0793 50.6799 19.378 50.7987C18.2278 50.9932 18.0957 50.9901 18.0295 50.7665C17.2269 48.0571 15.4578 45.4541 13.4752 44.0656C12.65 43.4877 12.1266 43.4673 11.6099 43.9932C11.1092 44.5029 11.2016 45.2375 11.8234 45.6919C12.8732 46.459 14.419 48.2338 14.9629 49.2964C15.276 49.9081 15.5321 50.4784 15.5321 50.5639C15.5321 50.6638 15.3274 50.6708 14.9588 50.5838C14.0807 50.3762 12.0607 50.4205 10.8695 50.6734C9.54034 50.9558 7.31914 52.0642 6.21145 52.9979C5.60623 53.5082 5.34483 53.6474 5.26503 53.5022C5.08785 53.1801 4.56076 50.341 4.36447 48.6513C4.10995 46.4598 4.14893 42.0186 4.44244 39.7815C5.23094 33.7728 7.31501 28.8976 10.5997 25.3781C12.7277 23.0981 15.2829 21.5596 18.2522 20.7704C19.4033 20.4646 20.2593 20.3575 22.0698 20.2934C24.7279 20.1991 26.0561 20.363 28.1438 21.0422C32.784 22.552 36.5805 25.9506 38.7122 30.5027C39.1783 31.4979 39.6118 32.4173 39.6758 32.5457C39.7397 32.674 39.9651 32.8791 40.1765 33.0013C40.6875 33.2968 41.4242 33.001 41.6677 32.4024C41.8131 32.0452 41.7807 31.8087 41.4721 30.9742C40.25 27.6693 37.922 24.4064 35.2674 22.2779C34.5864 21.732 34.0293 21.2056 34.0293 21.1084C34.0293 20.6921 34.5624 19.1603 35.0578 18.1521C35.3524 17.5528 36.042 16.4354 36.5903 15.6689C37.1387 14.9023 37.687 14.0322 37.8089 13.7351C38.433 12.2145 37.067 10.2868 35.3718 10.2963C35.0885 10.2979 34.0048 10.7023 32.8828 11.2251L30.8955 12.151L30.8456 11.6633C30.7753 10.9737 31.0655 8.92864 31.362 8.02346C31.6896 7.02414 32.3055 5.78658 33.0905 4.55072C34.0342 3.06496 33.9434 1.92699 32.8198 1.1561C31.9825 0.581746 31.3431 0.680091 29.2345 1.7068C28.2117 2.20475 26.9676 2.87745 26.4697 3.20159C25.3075 3.95847 23.9229 5.30465 23.3151 6.26881C23.0526 6.68507 22.8178 7.02569 22.7934 7.02569C22.7689 7.02569 22.5341 6.68507 22.2716 6.26881C21.6667 5.30917 20.2808 3.95941 19.1325 3.2117C18.6433 2.89317 17.4095 2.22078 16.3907 1.7177C14.3434 0.706389 13.6593 0.58906 12.8261 1.10631ZM16.4493 4.36928C18.4534 5.43568 20.2475 7.13633 20.9271 8.61385C21.3575 9.54922 21.6469 10.7939 21.6469 11.7088C21.6469 12.4502 22.1798 13.0945 22.7934 13.0945C23.3673 13.0945 23.9399 12.4481 23.9399 11.8001C23.9399 9.3712 25.2445 7.04359 27.5323 5.39039C28.4662 4.71551 30.9719 3.36591 30.9719 3.53755C30.9719 3.58952 30.843 3.81796 30.6856 4.04515C29.2911 6.05625 28.5361 9.17591 28.5286 12.9568C28.5255 14.4995 28.8232 15.1174 29.5692 15.1174C29.7945 15.1174 31.1824 14.5572 32.6535 13.8725C34.1245 13.1878 35.4143 12.6276 35.5195 12.6276C35.8605 12.6276 35.7277 12.9094 34.7333 14.2975C33.5689 15.9225 32.8089 17.3183 32.3381 18.6964C32.1481 19.2527 31.9426 19.7664 31.8818 19.838C31.8209 19.9095 31.2989 19.7588 30.7218 19.5029C28.2334 18.3997 25.826 17.9199 22.772 17.919C19.9255 17.9181 17.5701 18.4056 14.9163 19.5448L13.7112 20.0622L13.3798 19.0293C12.9185 17.5917 12.1598 16.1567 10.9266 14.3895C10.3004 13.4921 9.92893 12.8226 10.011 12.7391C10.142 12.6057 12.6295 13.6421 14.6486 14.6714C15.7728 15.2445 16.3236 15.2492 16.763 14.6895C17.086 14.2779 17.0952 14.1727 17.0028 11.9274C16.8582 8.40922 16.3502 6.37556 15.1268 4.41628C14.8452 3.96517 14.6148 3.56603 14.6148 3.52899C14.6148 3.45321 15.4248 3.82418 16.4493 4.36928ZM68.512 14.3782C72.814 19.2141 75.8661 25.966 76.9354 33.0125C77.2668 35.1966 77.3107 40.7623 77.0132 42.8937C75.931 50.6488 72.6373 57.6237 67.4413 63.1636C64.4814 66.3192 61.3731 68.653 57.5712 70.5743C55.5265 71.6077 52.4813 72.8486 51.9903 72.8486C51.8512 72.8486 51.9996 72.4161 52.4411 71.5352C52.8032 70.8129 53.2267 69.7899 53.382 69.2619C53.5911 68.5509 53.7558 68.2666 54.0166 68.1656C54.2102 68.0906 55.1125 67.6501 56.0214 67.1864C59.2452 65.5422 61.5599 63.829 64.2309 61.11C68.0653 57.207 70.4756 53.172 72.1379 47.8732C72.8012 45.7588 73.0673 44.4655 72.9427 43.9604C72.8165 43.4485 72.0416 43.1077 71.4671 43.3115C70.9638 43.49 70.9383 43.5456 70.4088 45.6169C68.5438 52.9112 64.2461 59.0966 58.1699 63.2314C56.9671 64.0499 54.3922 65.5377 54.1847 65.534C54.1555 65.5333 54.1168 64.8157 54.0988 63.939C53.9854 58.4388 50.581 53.1084 45.58 50.6004C43.1691 49.3912 41.942 49.1181 38.9211 49.1181C36.7579 49.1181 36.2138 49.1694 35.0994 49.4791C33.5705 49.9041 31.5606 50.8318 30.4573 51.622C30.0256 51.9312 37.2698 44.4434 46.5554 34.9825C55.8411 25.5216 63.4919 17.8146 63.5573 17.8557C63.7521 17.9783 65.4105 20.0981 66.1627 21.1862C67.6989 23.408 69.2792 26.7794 70.0952 29.5752C70.6965 31.6357 71.1569 34.5078 71.2788 36.9581C71.3702 38.7953 71.4136 39.0254 71.7299 39.3474C72.1928 39.8186 72.7775 39.8 73.27 39.2987L73.6681 38.8935L73.5678 36.8789C73.261 30.7087 71.5029 25.1387 68.3437 20.3288C67.3658 18.8399 65.7753 16.7712 65.2993 16.3691C65.0684 16.1741 65.1652 16.0297 66.3108 14.8574C67.0074 14.1445 67.6243 13.5613 67.6813 13.5613C67.7384 13.5613 68.1122 13.9288 68.512 14.3782ZM60.8104 28.7208C60.0274 29.0035 59.3236 29.2992 59.2462 29.3779C59.1689 29.4567 59.0623 29.7417 59.0093 30.0116C58.9315 30.4077 58.9883 30.5789 59.3052 30.9015C59.5209 31.1211 59.8553 31.3008 60.0479 31.3008C60.6251 31.3008 62.8196 30.5072 63.1892 30.1647C63.6492 29.7386 63.6357 29.0569 63.1579 28.5706C62.6832 28.0873 62.5395 28.0965 60.8104 28.7208ZM19.5408 29.8314C19.2922 30.0085 19.2009 30.2305 19.2009 30.6577C19.2009 31.193 19.333 31.3741 20.7839 32.8273C22.0283 34.0739 22.4581 34.413 22.7934 34.413C23.1286 34.413 23.5585 34.0739 24.8029 32.8273C26.2537 31.3741 26.3858 31.193 26.3858 30.6577C26.3858 29.9812 25.9751 29.5891 25.2668 29.5891C24.9339 29.5891 24.5804 29.8318 23.8084 30.5904L22.7894 31.5918L21.7763 30.5904C20.6874 29.5142 20.2119 29.3527 19.5408 29.8314ZM29.7601 29.9991C29.1687 30.7644 29.3951 31.2259 31.2576 33.0537C33.1456 34.9063 33.1465 34.9063 35.2061 32.8099C36.9444 31.0403 37.1307 30.6004 36.4272 29.9274C35.7914 29.3196 35.2818 29.4713 34.189 30.5935L33.211 31.598L32.1651 30.5935C31.2998 29.7627 31.0289 29.5891 30.598 29.5891C30.217 29.5891 29.9916 29.6994 29.7601 29.9991ZM60.5508 37.1234C60.0681 37.6148 60.0526 38.2923 60.514 38.7333C60.7966 39.0033 61.1323 39.0811 62.3976 39.1698C64.1234 39.2906 64.4576 39.1925 64.7472 38.4808C64.901 38.1026 64.8909 37.9411 64.689 37.5434C64.4103 36.9949 64.2827 36.956 62.347 36.8288C60.9842 36.7392 60.9176 36.7501 60.5508 37.1234ZM14.4216 37.0972C14.0037 37.4203 13.8583 38.0261 14.0745 38.5433C14.1802 38.7963 14.8931 39.6163 15.6585 40.3651C17.5561 42.2216 17.5616 42.2213 19.6187 40.1344C20.9625 38.7711 21.1882 38.4699 21.1882 38.0398C21.1882 37.4153 20.6861 36.9027 20.0744 36.9027C19.7355 36.9027 19.3882 37.1399 18.6128 37.9007L17.5958 38.8986L16.5626 37.9007C15.4894 36.8643 14.9735 36.6707 14.4216 37.0972ZM24.6209 37.2848C23.9286 37.9894 24.0831 38.3549 25.8205 40.1235C27.2 41.5278 27.4599 41.7266 27.9145 41.7266C28.3691 41.7266 28.629 41.5278 30.0085 40.1235C31.7459 38.3549 31.9004 37.9894 31.2081 37.2848C30.5851 36.6505 30.153 36.7768 28.9698 37.9397L27.9145 38.9767L26.8593 37.9397C25.676 36.7768 25.2439 36.6505 24.6209 37.2848ZM59.1481 44.5287C58.5291 44.7825 58.2879 45.7241 58.7003 46.2768C58.9133 46.5625 61.5029 47.7954 61.8898 47.7954C62.3596 47.7954 62.9217 47.1697 62.9217 46.6469C62.9217 45.9096 62.6896 45.6947 61.143 44.9996C59.6374 44.323 59.6452 44.3248 59.1481 44.5287ZM54.5427 51.2249C54.3295 51.427 54.2081 51.7278 54.2081 52.0538C54.2081 52.488 54.3905 52.746 55.4135 53.7595C56.7552 55.0885 57.1635 55.227 57.8074 54.5714C58.4631 53.9042 58.3217 53.4822 56.9876 52.1242C55.6769 50.79 55.19 50.611 54.5427 51.2249ZM41.9507 51.6869C46.6258 52.8278 50.2002 56.4193 51.4737 61.2556C51.9285 62.9827 51.9288 65.8712 51.4743 67.6356C50.5833 71.0955 48.2581 74.1705 45.2143 75.9142C41.9536 77.7822 37.5627 78.0361 34.0721 76.5584C33.4651 76.3014 32.5602 75.8227 32.0614 75.4945L31.1544 74.8978L31.986 73.2119C33.1871 70.7768 33.584 69.0663 33.6837 65.8939C33.7463 63.8979 33.7069 63.0568 33.4939 61.848C33.0418 59.281 32.1814 57.0259 31.022 55.3689C30.3997 54.4793 30.3971 54.4848 31.9258 53.4503C33.1006 52.6553 34.8256 51.9174 36.2438 51.6029C37.695 51.2814 40.455 51.322 41.9507 51.6869ZM40.7556 55.4203C40.3003 55.8837 40.3479 56.7165 40.8526 57.1206C41.3704 57.5353 41.7157 57.5282 42.1915 57.0931C42.9991 56.3544 42.5776 55.1091 41.5199 55.1091C41.2651 55.1091 40.9254 55.2474 40.7556 55.4203Z" stroke="white" stroke-width="1.6" mask="url(#path-1-outside-1_91_63)"/>
</svg>
