<svg width="118" height="38" viewBox="0 0 118 38" fill="none" xmlns="http://www.w3.org/2000/svg">
<path d="M18.0941 7.294V0.0487612H0V38H7.37166V22.1295H13.403V14.1942H7.37166V7.294H18.0941Z" fill="#FCFEFD"/>
<path d="M40.5441 0.0487612H23.4553V38H40.5441V29.7197H31.4971V22.1295H36.5232V14.1942H31.4971V7.294H40.5441V0.0487612Z" fill="#FCFEFD"/>
<path d="M46.9106 38V0.0487612C54.9524 0.0487612 68.3554 2.04985 68.3554 19.7144C68.3554 37.379 55.9576 38 46.9106 38Z" fill="#FCFEFD"/>
<path d="M74.3867 38V0.0487612C85.4442 0.0487612 92.1457 -0.641257 92.1457 10.7441C92.1457 22.1295 86.5611 21.3245 83.7688 22.1295L93.8211 38H74.3867Z" fill="#FCFEFD"/>
<path d="M117.611 3.15388L101.528 19.7144C98.9589 16.8393 95.3624 9.50207 101.528 3.15386C107.693 -3.19435 116.271 1.77381 117.611 3.15388Z" fill="#FCFEFD"/>
<path d="M98.5122 34.2047L114.596 17.6442C117.165 20.5192 120.761 27.8565 114.596 34.2047C108.43 40.5529 99.8525 35.5848 98.5122 34.2047Z" fill="#FCFEFD"/>
</svg>
