<svg width="138" height="44" viewBox="0 0 138 44" fill="none" xmlns="http://www.w3.org/2000/svg">
<path d="M21.1609 8.44569V0.0564603H0V44H8.62109V25.6236H15.6747V16.4354H8.62109V8.44569H21.1609Z" fill="#FCFEFD"/>
<path d="M47.416 0.0564603H27.4307V44H47.416V34.4123H36.8356V25.6236H42.7136V16.4354H36.8356V8.44569H47.416V0.0564603Z" fill="#FCFEFD"/>
<path d="M54.8615 44V0.0564603C64.2663 0.0564603 79.941 2.37351 79.941 22.8272C79.941 43.2809 65.4419 44 54.8615 44Z" fill="#FCFEFD"/>
<path d="M86.9946 44V0.0564603C99.9263 0.0564603 107.764 -0.742507 107.764 12.4406C107.764 25.6236 101.233 24.6915 97.9669 25.6236L109.723 44H86.9946Z" fill="#FCFEFD"/>
<path d="M137.546 3.65186L118.736 22.8272C115.732 19.4982 111.526 11.0024 118.736 3.65184C125.946 -3.69872 135.978 2.05389 137.546 3.65186Z" fill="#FCFEFD"/>
<path d="M115.209 39.6054L134.019 20.4301C137.023 23.7591 141.229 32.2549 134.019 39.6055C126.808 46.956 116.777 41.2034 115.209 39.6054Z" fill="#FCFEFD"/>
</svg>
