<svg width="76" height="72" viewBox="0 0 76 72" fill="none" xmlns="http://www.w3.org/2000/svg">
<mask id="path-1-outside-1_91_65" maskUnits="userSpaceOnUse" x="0.131134" y="0.660126" width="75" height="71" fill="black">
<rect fill="white" x="0.131134" y="0.660126" width="75" height="71"/>
<path fill-rule="evenodd" clip-rule="evenodd" d="M41.4553 1.79867C41.1493 1.90329 40.6993 2.1321 40.4552 2.30718C40.211 2.4824 35.7194 8.39669 30.4737 15.45L20.936 28.2743L18.2394 28.3112L15.5429 28.348L15.6232 27.9062C15.6674 27.6632 15.9349 25.2471 16.2177 22.5371C16.5004 19.8272 16.7698 17.3532 16.8164 17.0394C16.8974 16.4925 16.9437 16.4485 17.9436 15.9672C18.9541 15.4807 20.3647 14.3643 20.9557 13.5834L21.2444 13.2017L25.5119 13.5958C28.388 13.8613 29.9069 13.95 30.1707 13.8675C30.9956 13.6096 31.0554 12.4589 30.2605 12.1398C30.0768 12.0661 27.9785 11.8324 25.5973 11.6204C20.789 11.1925 20.4246 11.2111 19.7074 11.9219C19.4725 12.1547 18.9414 12.6841 18.527 13.0981C18.0717 13.553 17.437 14.0028 16.9234 14.2346C15.6216 14.8219 15.1653 15.1824 14.9171 15.819C14.7835 16.162 14.4368 18.8104 14.0603 22.3684L13.4277 28.3418H12.7224H12.0169L12.0975 27.8356C12.1419 27.5572 12.6077 23.3298 13.1327 18.4416C13.6578 13.5533 14.1545 9.4391 14.2362 9.29898C14.458 8.91938 14.8669 8.76752 15.6583 8.77103C16.0487 8.77265 19.9771 9.10297 24.3884 9.50498C31.4896 10.1521 32.4546 10.2142 32.8084 10.0466C33.5176 9.71057 33.4911 8.64373 32.7666 8.36672C32.5827 8.29639 29.9782 8.02114 26.9791 7.75507C23.98 7.489 20.1497 7.14558 18.4673 6.99196C16.7567 6.83577 15.1212 6.75208 14.7572 6.80203C13.4271 6.98481 12.2776 8.04544 11.9997 9.3465C11.9168 9.73366 11.5036 13.3003 11.0814 17.2724L10.3135 24.4945L8.45541 24.5705C6.86316 24.6357 6.49501 24.6947 5.8837 24.9829C4.63056 25.5737 3.9264 26.6983 3.90753 28.1393C3.89898 28.792 3.87599 28.8277 3.21088 29.2193C2.83272 29.442 2.30629 29.8864 2.04116 30.2069C1.0589 31.3945 1.1062 30.3555 1.14924 49.8132L1.18829 67.4221L1.53492 68.1244C1.97322 69.0118 3.17153 70.0611 4.13626 70.4018C4.85501 70.6557 5.61798 70.6619 35.9691 70.6619H67.0655L67.8339 70.3436C68.7451 69.9662 69.8302 68.9534 70.2813 68.0589C70.5908 67.4452 70.6041 67.2349 70.646 62.2587L70.6893 57.0952L71.2355 57.0944C72.5041 57.0926 73.6202 56.5141 74.0122 55.6547C74.1712 55.3062 74.2132 54.0259 74.2132 49.5346C74.2132 44.1432 74.1985 43.8287 73.9218 43.3319C73.4719 42.5243 72.8517 42.1931 71.6742 42.1322L70.6762 42.0805V37.1931C70.6762 33.1 70.6377 32.1871 70.4396 31.5762C70.1792 30.7726 69.553 29.8578 68.9819 29.4463C68.6474 29.2054 68.6129 29.0867 68.6129 28.1801C68.6129 26.9826 68.1649 26.0156 67.3101 25.3679C66.7036 24.9086 65.6014 24.562 64.7463 24.562H64.1755L65.8978 22.2519C66.8546 20.9685 67.7132 19.6634 67.8296 19.3158C68.1905 18.2364 67.8054 16.9437 66.8948 16.1778C66.6644 15.9841 64.7185 14.7311 62.5705 13.3933C60.4225 12.0555 55.4817 8.97324 51.591 6.54379C47.7002 4.11446 44.3238 2.0349 44.0877 1.92272C43.4794 1.63357 42.1254 1.56985 41.4553 1.79867ZM43.2847 3.78333C44.1763 4.2203 65.0675 17.3483 65.4075 17.6851C66.0565 18.3282 65.9592 18.6484 64.5232 20.5942C63.814 21.5552 62.2389 23.6892 61.023 25.3362L58.8124 28.3309L57.9634 28.3364L57.1145 28.3418L58.8354 26.0276C59.7818 24.7548 60.6447 23.478 60.7529 23.1904C60.9816 22.5824 60.888 22.1141 60.2714 20.7822C59.9261 20.0365 59.8592 19.686 59.8257 18.4476C59.7933 17.2503 59.7317 16.9097 59.4806 16.5374C59.2636 16.216 57.4406 15.0009 53.2015 12.3526C49.916 10.3002 47.0613 8.56287 46.8577 8.49186C46.2148 8.26804 45.5326 8.34971 44.3439 8.79276C43.3307 9.17033 42.9991 9.22662 41.6149 9.25511C39.7519 9.29358 39.2262 9.47393 38.5881 10.2935C38.3454 10.6052 35.2788 14.7177 31.7736 19.4323C28.2682 24.1469 25.3183 28.0837 25.218 28.1809C25.1016 28.2936 24.7654 28.3424 24.2877 28.3159L23.5398 28.2743L32.5209 16.1925C37.4605 9.5475 41.6405 4.00431 41.8099 3.87445C42.157 3.60824 42.8414 3.56585 43.2847 3.78333ZM52.0331 14.0029L57.6334 17.5023L57.7215 18.9736C57.7905 20.124 57.8978 20.6508 58.2136 21.3897C58.4357 21.9094 58.6282 22.4287 58.6413 22.5436C58.6542 22.6585 57.7365 24.0082 56.6017 25.5426L54.5385 28.3328L52.6893 28.3372L50.8402 28.3418L50.6704 27.4336C50.4395 26.199 49.4908 24.4897 48.4829 23.4925C47.4165 22.4374 46.2825 21.7639 44.7665 21.2854C41.691 20.3142 38.004 21.1112 35.7325 23.2382C34.4599 24.4299 33.5035 26.1188 33.2743 27.5787L33.1651 28.2743L30.4666 28.3112C28.3124 28.3406 27.7912 28.3133 27.8822 28.1762C27.945 28.0817 30.8087 24.2229 34.2458 19.6011L40.4951 11.1978H41.8721C42.935 11.1978 43.5112 11.121 44.3987 10.8608C45.0311 10.6755 45.6445 10.4671 45.7616 10.3977C45.8837 10.3256 46.0727 10.3213 46.2038 10.3876C46.3298 10.4514 48.9529 12.0783 52.0331 14.0029ZM43.6275 23.0141C44.8265 23.3001 45.8139 23.822 46.7115 24.6442C47.6352 25.4904 48.1964 26.4001 48.4791 27.5099L48.691 28.3418H41.9917H35.2925L35.3927 27.8356C36.0705 24.4118 39.9544 22.1377 43.6275 23.0141ZM10.0493 27.0088C9.99859 27.2408 9.95718 27.6357 9.95718 27.8862V28.3418H8.04129H6.1254V27.859C6.1254 27.5053 6.24064 27.2705 6.55618 26.9815C6.9787 26.5945 7.01746 26.5869 8.56418 26.5869H10.1414L10.0493 27.0088ZM65.863 26.8642C66.2795 27.1643 66.6889 28.1511 66.4639 28.3125C66.3894 28.3659 65.2203 28.3902 63.8656 28.3667L61.4027 28.3237L62.0234 27.4582L62.6442 26.5926L64.0612 26.5898C65.2703 26.5873 65.5347 26.6276 65.863 26.8642ZM67.3833 30.8488C68.3142 31.5302 68.4651 31.9475 68.4652 33.8428L68.4655 35.4964H35.8954H3.32525V33.8023C3.32525 32.6064 3.38641 32.0011 3.5332 31.7436C3.80024 31.2755 4.47508 30.6897 4.94639 30.5174C5.18838 30.4288 15.8656 30.3914 36.0659 30.4083L66.8171 30.4342L67.3833 30.8488ZM68.4655 39.8162V42.111L62.9021 42.1131C58.4649 42.1147 57.1478 42.1563 56.3959 42.3185C53.8187 42.8751 51.6104 44.6848 50.6367 47.0383C50.2189 48.048 50.0686 50.1125 50.3355 51.1734C50.9942 53.791 53.181 55.9179 56.0859 56.7662C56.7848 56.9703 57.6939 57.0111 62.681 57.0621L68.4655 57.1213V59.4032V61.685H41.9607C15.5864 61.685 15.4545 61.6863 15.1873 61.9567C14.8431 62.3051 14.8431 62.9547 15.1873 63.3031C15.4545 63.5735 15.5864 63.5748 41.9607 63.5748H68.4655L68.4632 65.296C68.461 66.8305 68.4247 67.0755 68.1285 67.5544C67.9422 67.8556 67.5387 68.2252 67.2099 68.3958L66.6233 68.7001L35.9176 68.7024C1.72194 68.7048 4.63159 68.7878 3.79597 67.7854C3.41603 67.3297 3.39687 67.2291 3.35089 65.4421L3.30299 63.5748H6.40895C9.31859 63.5748 9.53376 63.5577 9.8098 63.3049C9.8098 63.3049 10.1046 62.8549 10.1046 62.6299C10.1046 62.4049 9.97354 62.1049 9.8098 61.9549C9.53376 61.7021 9.31859 61.685 6.42015 61.685H3.32525V49.6031V37.5213H35.8954H68.4655V39.8162ZM71.9673 49.5694L72.0058 55.0703L64.8196 55.0671C60.616 55.0651 57.3709 55.0082 57.001 54.9301C54.6861 54.441 52.8285 52.6437 52.3912 50.4701C51.7962 47.5125 54.1808 44.537 57.4618 44.143C57.9614 44.0829 61.4209 44.0416 65.1496 44.0512L71.9289 44.0684L71.9673 49.5694ZM57.264 45.7469C55.4006 46.2661 54.0171 48.1395 54.2131 49.8781C54.4545 52.0217 56.2115 53.5063 58.5089 53.5083C62.3048 53.5117 64.2388 49.5589 61.7611 46.8617C61.5512 46.6333 60.9738 46.2607 60.4777 46.0337C59.7313 45.692 59.4087 45.6229 58.6046 45.6325C58.0705 45.6388 57.4671 45.6904 57.264 45.7469ZM59.3871 47.6989C60.9374 48.2922 61.1738 50.2805 59.805 51.214C59.2349 51.6028 58.05 51.6457 57.4478 51.2993C55.9503 50.4381 56.0483 48.4213 57.6194 47.7678C58.3464 47.4653 58.7371 47.4501 59.3871 47.6989Z"/>
</mask>
<path fill-rule="evenodd" clip-rule="evenodd" d="M41.4553 1.79867C41.1493 1.90329 40.6993 2.1321 40.4552 2.30718C40.211 2.4824 35.7194 8.39669 30.4737 15.45L20.936 28.2743L18.2394 28.3112L15.5429 28.348L15.6232 27.9062C15.6674 27.6632 15.9349 25.2471 16.2177 22.5371C16.5004 19.8272 16.7698 17.3532 16.8164 17.0394C16.8974 16.4925 16.9437 16.4485 17.9436 15.9672C18.9541 15.4807 20.3647 14.3643 20.9557 13.5834L21.2444 13.2017L25.5119 13.5958C28.388 13.8613 29.9069 13.95 30.1707 13.8675C30.9956 13.6096 31.0554 12.4589 30.2605 12.1398C30.0768 12.0661 27.9785 11.8324 25.5973 11.6204C20.789 11.1925 20.4246 11.2111 19.7074 11.9219C19.4725 12.1547 18.9414 12.6841 18.527 13.0981C18.0717 13.553 17.437 14.0028 16.9234 14.2346C15.6216 14.8219 15.1653 15.1824 14.9171 15.819C14.7835 16.162 14.4368 18.8104 14.0603 22.3684L13.4277 28.3418H12.7224H12.0169L12.0975 27.8356C12.1419 27.5572 12.6077 23.3298 13.1327 18.4416C13.6578 13.5533 14.1545 9.4391 14.2362 9.29898C14.458 8.91938 14.8669 8.76752 15.6583 8.77103C16.0487 8.77265 19.9771 9.10297 24.3884 9.50498C31.4896 10.1521 32.4546 10.2142 32.8084 10.0466C33.5176 9.71057 33.4911 8.64373 32.7666 8.36672C32.5827 8.29639 29.9782 8.02114 26.9791 7.75507C23.98 7.489 20.1497 7.14558 18.4673 6.99196C16.7567 6.83577 15.1212 6.75208 14.7572 6.80203C13.4271 6.98481 12.2776 8.04544 11.9997 9.3465C11.9168 9.73366 11.5036 13.3003 11.0814 17.2724L10.3135 24.4945L8.45541 24.5705C6.86316 24.6357 6.49501 24.6947 5.8837 24.9829C4.63056 25.5737 3.9264 26.6983 3.90753 28.1393C3.89898 28.792 3.87599 28.8277 3.21088 29.2193C2.83272 29.442 2.30629 29.8864 2.04116 30.2069C1.0589 31.3945 1.1062 30.3555 1.14924 49.8132L1.18829 67.4221L1.53492 68.1244C1.97322 69.0118 3.17153 70.0611 4.13626 70.4018C4.85501 70.6557 5.61798 70.6619 35.9691 70.6619H67.0655L67.8339 70.3436C68.7451 69.9662 69.8302 68.9534 70.2813 68.0589C70.5908 67.4452 70.6041 67.2349 70.646 62.2587L70.6893 57.0952L71.2355 57.0944C72.5041 57.0926 73.6202 56.5141 74.0122 55.6547C74.1712 55.3062 74.2132 54.0259 74.2132 49.5346C74.2132 44.1432 74.1985 43.8287 73.9218 43.3319C73.4719 42.5243 72.8517 42.1931 71.6742 42.1322L70.6762 42.0805V37.1931C70.6762 33.1 70.6377 32.1871 70.4396 31.5762C70.1792 30.7726 69.553 29.8578 68.9819 29.4463C68.6474 29.2054 68.6129 29.0867 68.6129 28.1801C68.6129 26.9826 68.1649 26.0156 67.3101 25.3679C66.7036 24.9086 65.6014 24.562 64.7463 24.562H64.1755L65.8978 22.2519C66.8546 20.9685 67.7132 19.6634 67.8296 19.3158C68.1905 18.2364 67.8054 16.9437 66.8948 16.1778C66.6644 15.9841 64.7185 14.7311 62.5705 13.3933C60.4225 12.0555 55.4817 8.97324 51.591 6.54379C47.7002 4.11446 44.3238 2.0349 44.0877 1.92272C43.4794 1.63357 42.1254 1.56985 41.4553 1.79867ZM43.2847 3.78333C44.1763 4.2203 65.0675 17.3483 65.4075 17.6851C66.0565 18.3282 65.9592 18.6484 64.5232 20.5942C63.814 21.5552 62.2389 23.6892 61.023 25.3362L58.8124 28.3309L57.9634 28.3364L57.1145 28.3418L58.8354 26.0276C59.7818 24.7548 60.6447 23.478 60.7529 23.1904C60.9816 22.5824 60.888 22.1141 60.2714 20.7822C59.9261 20.0365 59.8592 19.686 59.8257 18.4476C59.7933 17.2503 59.7317 16.9097 59.4806 16.5374C59.2636 16.216 57.4406 15.0009 53.2015 12.3526C49.916 10.3002 47.0613 8.56287 46.8577 8.49186C46.2148 8.26804 45.5326 8.34971 44.3439 8.79276C43.3307 9.17033 42.9991 9.22662 41.6149 9.25511C39.7519 9.29358 39.2262 9.47393 38.5881 10.2935C38.3454 10.6052 35.2788 14.7177 31.7736 19.4323C28.2682 24.1469 25.3183 28.0837 25.218 28.1809C25.1016 28.2936 24.7654 28.3424 24.2877 28.3159L23.5398 28.2743L32.5209 16.1925C37.4605 9.5475 41.6405 4.00431 41.8099 3.87445C42.157 3.60824 42.8414 3.56585 43.2847 3.78333ZM52.0331 14.0029L57.6334 17.5023L57.7215 18.9736C57.7905 20.124 57.8978 20.6508 58.2136 21.3897C58.4357 21.9094 58.6282 22.4287 58.6413 22.5436C58.6542 22.6585 57.7365 24.0082 56.6017 25.5426L54.5385 28.3328L52.6893 28.3372L50.8402 28.3418L50.6704 27.4336C50.4395 26.199 49.4908 24.4897 48.4829 23.4925C47.4165 22.4374 46.2825 21.7639 44.7665 21.2854C41.691 20.3142 38.004 21.1112 35.7325 23.2382C34.4599 24.4299 33.5035 26.1188 33.2743 27.5787L33.1651 28.2743L30.4666 28.3112C28.3124 28.3406 27.7912 28.3133 27.8822 28.1762C27.945 28.0817 30.8087 24.2229 34.2458 19.6011L40.4951 11.1978H41.8721C42.935 11.1978 43.5112 11.121 44.3987 10.8608C45.0311 10.6755 45.6445 10.4671 45.7616 10.3977C45.8837 10.3256 46.0727 10.3213 46.2038 10.3876C46.3298 10.4514 48.9529 12.0783 52.0331 14.0029ZM43.6275 23.0141C44.8265 23.3001 45.8139 23.822 46.7115 24.6442C47.6352 25.4904 48.1964 26.4001 48.4791 27.5099L48.691 28.3418H41.9917H35.2925L35.3927 27.8356C36.0705 24.4118 39.9544 22.1377 43.6275 23.0141ZM10.0493 27.0088C9.99859 27.2408 9.95718 27.6357 9.95718 27.8862V28.3418H8.04129H6.1254V27.859C6.1254 27.5053 6.24064 27.2705 6.55618 26.9815C6.9787 26.5945 7.01746 26.5869 8.56418 26.5869H10.1414L10.0493 27.0088ZM65.863 26.8642C66.2795 27.1643 66.6889 28.1511 66.4639 28.3125C66.3894 28.3659 65.2203 28.3902 63.8656 28.3667L61.4027 28.3237L62.0234 27.4582L62.6442 26.5926L64.0612 26.5898C65.2703 26.5873 65.5347 26.6276 65.863 26.8642ZM67.3833 30.8488C68.3142 31.5302 68.4651 31.9475 68.4652 33.8428L68.4655 35.4964H35.8954H3.32525V33.8023C3.32525 32.6064 3.38641 32.0011 3.5332 31.7436C3.80024 31.2755 4.47508 30.6897 4.94639 30.5174C5.18838 30.4288 15.8656 30.3914 36.0659 30.4083L66.8171 30.4342L67.3833 30.8488ZM68.4655 39.8162V42.111L62.9021 42.1131C58.4649 42.1147 57.1478 42.1563 56.3959 42.3185C53.8187 42.8751 51.6104 44.6848 50.6367 47.0383C50.2189 48.048 50.0686 50.1125 50.3355 51.1734C50.9942 53.791 53.181 55.9179 56.0859 56.7662C56.7848 56.9703 57.6939 57.0111 62.681 57.0621L68.4655 57.1213V59.4032V61.685H41.9607C15.5864 61.685 15.4545 61.6863 15.1873 61.9567C14.8431 62.3051 14.8431 62.9547 15.1873 63.3031C15.4545 63.5735 15.5864 63.5748 41.9607 63.5748H68.4655L68.4632 65.296C68.461 66.8305 68.4247 67.0755 68.1285 67.5544C67.9422 67.8556 67.5387 68.2252 67.2099 68.3958L66.6233 68.7001L35.9176 68.7024C1.72194 68.7048 4.63159 68.7878 3.79597 67.7854C3.41603 67.3297 3.39687 67.2291 3.35089 65.4421L3.30299 63.5748H6.40895C9.31859 63.5748 9.53376 63.5577 9.8098 63.3049C9.8098 63.3049 10.1046 62.8549 10.1046 62.6299C10.1046 62.4049 9.97354 62.1049 9.8098 61.9549C9.53376 61.7021 9.31859 61.685 6.42015 61.685H3.32525V49.6031V37.5213H35.8954H68.4655V39.8162ZM71.9673 49.5694L72.0058 55.0703L64.8196 55.0671C60.616 55.0651 57.3709 55.0082 57.001 54.9301C54.6861 54.441 52.8285 52.6437 52.3912 50.4701C51.7962 47.5125 54.1808 44.537 57.4618 44.143C57.9614 44.0829 61.4209 44.0416 65.1496 44.0512L71.9289 44.0684L71.9673 49.5694ZM57.264 45.7469C55.4006 46.2661 54.0171 48.1395 54.2131 49.8781C54.4545 52.0217 56.2115 53.5063 58.5089 53.5083C62.3048 53.5117 64.2388 49.5589 61.7611 46.8617C61.5512 46.6333 60.9738 46.2607 60.4777 46.0337C59.7313 45.692 59.4087 45.6229 58.6046 45.6325C58.0705 45.6388 57.4671 45.6904 57.264 45.7469ZM59.3871 47.6989C60.9374 48.2922 61.1738 50.2805 59.805 51.214C59.2349 51.6028 58.05 51.6457 57.4478 51.2993C55.9503 50.4381 56.0483 48.4213 57.6194 47.7678C58.3464 47.4653 58.7371 47.4501 59.3871 47.6989Z" fill="white"/>
<path fill-rule="evenodd" clip-rule="evenodd" d="M41.4553 1.79867C41.1493 1.90329 40.6993 2.1321 40.4552 2.30718C40.211 2.4824 35.7194 8.39669 30.4737 15.45L20.936 28.2743L18.2394 28.3112L15.5429 28.348L15.6232 27.9062C15.6674 27.6632 15.9349 25.2471 16.2177 22.5371C16.5004 19.8272 16.7698 17.3532 16.8164 17.0394C16.8974 16.4925 16.9437 16.4485 17.9436 15.9672C18.9541 15.4807 20.3647 14.3643 20.9557 13.5834L21.2444 13.2017L25.5119 13.5958C28.388 13.8613 29.9069 13.95 30.1707 13.8675C30.9956 13.6096 31.0554 12.4589 30.2605 12.1398C30.0768 12.0661 27.9785 11.8324 25.5973 11.6204C20.789 11.1925 20.4246 11.2111 19.7074 11.9219C19.4725 12.1547 18.9414 12.6841 18.527 13.0981C18.0717 13.553 17.437 14.0028 16.9234 14.2346C15.6216 14.8219 15.1653 15.1824 14.9171 15.819C14.7835 16.162 14.4368 18.8104 14.0603 22.3684L13.4277 28.3418H12.7224H12.0169L12.0975 27.8356C12.1419 27.5572 12.6077 23.3298 13.1327 18.4416C13.6578 13.5533 14.1545 9.4391 14.2362 9.29898C14.458 8.91938 14.8669 8.76752 15.6583 8.77103C16.0487 8.77265 19.9771 9.10297 24.3884 9.50498C31.4896 10.1521 32.4546 10.2142 32.8084 10.0466C33.5176 9.71057 33.4911 8.64373 32.7666 8.36672C32.5827 8.29639 29.9782 8.02114 26.9791 7.75507C23.98 7.489 20.1497 7.14558 18.4673 6.99196C16.7567 6.83577 15.1212 6.75208 14.7572 6.80203C13.4271 6.98481 12.2776 8.04544 11.9997 9.3465C11.9168 9.73366 11.5036 13.3003 11.0814 17.2724L10.3135 24.4945L8.45541 24.5705C6.86316 24.6357 6.49501 24.6947 5.8837 24.9829C4.63056 25.5737 3.9264 26.6983 3.90753 28.1393C3.89898 28.792 3.87599 28.8277 3.21088 29.2193C2.83272 29.442 2.30629 29.8864 2.04116 30.2069C1.0589 31.3945 1.1062 30.3555 1.14924 49.8132L1.18829 67.4221L1.53492 68.1244C1.97322 69.0118 3.17153 70.0611 4.13626 70.4018C4.85501 70.6557 5.61798 70.6619 35.9691 70.6619H67.0655L67.8339 70.3436C68.7451 69.9662 69.8302 68.9534 70.2813 68.0589C70.5908 67.4452 70.6041 67.2349 70.646 62.2587L70.6893 57.0952L71.2355 57.0944C72.5041 57.0926 73.6202 56.5141 74.0122 55.6547C74.1712 55.3062 74.2132 54.0259 74.2132 49.5346C74.2132 44.1432 74.1985 43.8287 73.9218 43.3319C73.4719 42.5243 72.8517 42.1931 71.6742 42.1322L70.6762 42.0805V37.1931C70.6762 33.1 70.6377 32.1871 70.4396 31.5762C70.1792 30.7726 69.553 29.8578 68.9819 29.4463C68.6474 29.2054 68.6129 29.0867 68.6129 28.1801C68.6129 26.9826 68.1649 26.0156 67.3101 25.3679C66.7036 24.9086 65.6014 24.562 64.7463 24.562H64.1755L65.8978 22.2519C66.8546 20.9685 67.7132 19.6634 67.8296 19.3158C68.1905 18.2364 67.8054 16.9437 66.8948 16.1778C66.6644 15.9841 64.7185 14.7311 62.5705 13.3933C60.4225 12.0555 55.4817 8.97324 51.591 6.54379C47.7002 4.11446 44.3238 2.0349 44.0877 1.92272C43.4794 1.63357 42.1254 1.56985 41.4553 1.79867ZM43.2847 3.78333C44.1763 4.2203 65.0675 17.3483 65.4075 17.6851C66.0565 18.3282 65.9592 18.6484 64.5232 20.5942C63.814 21.5552 62.2389 23.6892 61.023 25.3362L58.8124 28.3309L57.9634 28.3364L57.1145 28.3418L58.8354 26.0276C59.7818 24.7548 60.6447 23.478 60.7529 23.1904C60.9816 22.5824 60.888 22.1141 60.2714 20.7822C59.9261 20.0365 59.8592 19.686 59.8257 18.4476C59.7933 17.2503 59.7317 16.9097 59.4806 16.5374C59.2636 16.216 57.4406 15.0009 53.2015 12.3526C49.916 10.3002 47.0613 8.56287 46.8577 8.49186C46.2148 8.26804 45.5326 8.34971 44.3439 8.79276C43.3307 9.17033 42.9991 9.22662 41.6149 9.25511C39.7519 9.29358 39.2262 9.47393 38.5881 10.2935C38.3454 10.6052 35.2788 14.7177 31.7736 19.4323C28.2682 24.1469 25.3183 28.0837 25.218 28.1809C25.1016 28.2936 24.7654 28.3424 24.2877 28.3159L23.5398 28.2743L32.5209 16.1925C37.4605 9.5475 41.6405 4.00431 41.8099 3.87445C42.157 3.60824 42.8414 3.56585 43.2847 3.78333ZM52.0331 14.0029L57.6334 17.5023L57.7215 18.9736C57.7905 20.124 57.8978 20.6508 58.2136 21.3897C58.4357 21.9094 58.6282 22.4287 58.6413 22.5436C58.6542 22.6585 57.7365 24.0082 56.6017 25.5426L54.5385 28.3328L52.6893 28.3372L50.8402 28.3418L50.6704 27.4336C50.4395 26.199 49.4908 24.4897 48.4829 23.4925C47.4165 22.4374 46.2825 21.7639 44.7665 21.2854C41.691 20.3142 38.004 21.1112 35.7325 23.2382C34.4599 24.4299 33.5035 26.1188 33.2743 27.5787L33.1651 28.2743L30.4666 28.3112C28.3124 28.3406 27.7912 28.3133 27.8822 28.1762C27.945 28.0817 30.8087 24.2229 34.2458 19.6011L40.4951 11.1978H41.8721C42.935 11.1978 43.5112 11.121 44.3987 10.8608C45.0311 10.6755 45.6445 10.4671 45.7616 10.3977C45.8837 10.3256 46.0727 10.3213 46.2038 10.3876C46.3298 10.4514 48.9529 12.0783 52.0331 14.0029ZM43.6275 23.0141C44.8265 23.3001 45.8139 23.822 46.7115 24.6442C47.6352 25.4904 48.1964 26.4001 48.4791 27.5099L48.691 28.3418H41.9917H35.2925L35.3927 27.8356C36.0705 24.4118 39.9544 22.1377 43.6275 23.0141ZM10.0493 27.0088C9.99859 27.2408 9.95718 27.6357 9.95718 27.8862V28.3418H8.04129H6.1254V27.859C6.1254 27.5053 6.24064 27.2705 6.55618 26.9815C6.9787 26.5945 7.01746 26.5869 8.56418 26.5869H10.1414L10.0493 27.0088ZM65.863 26.8642C66.2795 27.1643 66.6889 28.1511 66.4639 28.3125C66.3894 28.3659 65.2203 28.3902 63.8656 28.3667L61.4027 28.3237L62.0234 27.4582L62.6442 26.5926L64.0612 26.5898C65.2703 26.5873 65.5347 26.6276 65.863 26.8642ZM67.3833 30.8488C68.3142 31.5302 68.4651 31.9475 68.4652 33.8428L68.4655 35.4964H35.8954H3.32525V33.8023C3.32525 32.6064 3.38641 32.0011 3.5332 31.7436C3.80024 31.2755 4.47508 30.6897 4.94639 30.5174C5.18838 30.4288 15.8656 30.3914 36.0659 30.4083L66.8171 30.4342L67.3833 30.8488ZM68.4655 39.8162V42.111L62.9021 42.1131C58.4649 42.1147 57.1478 42.1563 56.3959 42.3185C53.8187 42.8751 51.6104 44.6848 50.6367 47.0383C50.2189 48.048 50.0686 50.1125 50.3355 51.1734C50.9942 53.791 53.181 55.9179 56.0859 56.7662C56.7848 56.9703 57.6939 57.0111 62.681 57.0621L68.4655 57.1213V59.4032V61.685H41.9607C15.5864 61.685 15.4545 61.6863 15.1873 61.9567C14.8431 62.3051 14.8431 62.9547 15.1873 63.3031C15.4545 63.5735 15.5864 63.5748 41.9607 63.5748H68.4655L68.4632 65.296C68.461 66.8305 68.4247 67.0755 68.1285 67.5544C67.9422 67.8556 67.5387 68.2252 67.2099 68.3958L66.6233 68.7001L35.9176 68.7024C1.72194 68.7048 4.63159 68.7878 3.79597 67.7854C3.41603 67.3297 3.39687 67.2291 3.35089 65.4421L3.30299 63.5748H6.40895C9.31859 63.5748 9.53376 63.5577 9.8098 63.3049C9.8098 63.3049 10.1046 62.8549 10.1046 62.6299C10.1046 62.4049 9.97354 62.1049 9.8098 61.9549C9.53376 61.7021 9.31859 61.685 6.42015 61.685H3.32525V49.6031V37.5213H35.8954H68.4655V39.8162ZM71.9673 49.5694L72.0058 55.0703L64.8196 55.0671C60.616 55.0651 57.3709 55.0082 57.001 54.9301C54.6861 54.441 52.8285 52.6437 52.3912 50.4701C51.7962 47.5125 54.1808 44.537 57.4618 44.143C57.9614 44.0829 61.4209 44.0416 65.1496 44.0512L71.9289 44.0684L71.9673 49.5694ZM57.264 45.7469C55.4006 46.2661 54.0171 48.1395 54.2131 49.8781C54.4545 52.0217 56.2115 53.5063 58.5089 53.5083C62.3048 53.5117 64.2388 49.5589 61.7611 46.8617C61.5512 46.6333 60.9738 46.2607 60.4777 46.0337C59.7313 45.692 59.4087 45.6229 58.6046 45.6325C58.0705 45.6388 57.4671 45.6904 57.264 45.7469ZM59.3871 47.6989C60.9374 48.2922 61.1738 50.2805 59.805 51.214C59.2349 51.6028 58.05 51.6457 57.4478 51.2993C55.9503 50.4381 56.0483 48.4213 57.6194 47.7678C58.3464 47.4653 58.7371 47.4501 59.3871 47.6989Z" stroke="white" stroke-width="1.6" mask="url(#path-1-outside-1_91_65)"/>
</svg>
